<?xml version="1.0" encoding="UTF-8"?>
<!DOCTYPE svg PUBLIC "-//W3C//DTD SVG 1.1//EN" "http://www.w3.org/Graphics/SVG/1.1/DTD/svg11.dtd">
<svg xmlns="http://www.w3.org/2000/svg" version="1.1" width="200px" height="200px" style="shape-rendering:geometricPrecision; text-rendering:geometricPrecision; image-rendering:optimizeQuality; fill-rule:evenodd; clip-rule:evenodd" xmlns:xlink="http://www.w3.org/1999/xlink">
<g><path style="opacity:1" fill="#fefefe" d="M -0.5,-0.5 C 66.1667,-0.5 132.833,-0.5 199.5,-0.5C 199.5,66.1667 199.5,132.833 199.5,199.5C 132.833,199.5 66.1667,199.5 -0.5,199.5C -0.5,132.833 -0.5,66.1667 -0.5,-0.5 Z"/></g>
<g><path style="opacity:1" fill="#ed8437" d="M 12.5,20.5 C 20.4001,20.3858 23.4001,24.0525 21.5,31.5C 23.5,34.1667 25.8333,36.5 28.5,38.5C 31.8333,35.8333 35.1667,35.8333 38.5,38.5C 42.7836,36.1268 44.6169,32.4601 44,27.5C 46.76,25.297 49.76,24.9637 53,26.5C 55.2045,32.9901 52.7045,36.1568 45.5,36C 43.8333,37.6667 42.1667,39.3333 40.5,41C 43.0768,44.262 43.0768,47.5954 40.5,51C 42.8333,53.3333 45.1667,55.6667 47.5,58C 50.1667,58.3333 52.8333,58.6667 55.5,59C 59.0917,61.9707 59.4251,65.304 56.5,69C 49.0178,71.5401 45.5178,68.7068 46,60.5C 43.6506,57.9832 41.1506,55.6499 38.5,53.5C 34.8165,54.5717 31.1499,54.7384 27.5,54C 21.8933,58.2539 17.8933,63.5872 15.5,70C 8.09454,70.3807 6.76121,67.714 11.5,62C 17.5747,60.273 22.2414,56.6063 25.5,51C 24.4841,47.1629 24.3174,43.3295 25,39.5C 23,37.5 21,35.5 19,33.5C 11.6778,35.1851 8.34445,32.1851 9,24.5C 10.3756,23.2949 11.5423,21.9616 12.5,20.5 Z"/></g>
<g><path style="opacity:1" fill="#fef6f1" d="M 13.5,23.5 C 19.4877,23.664 20.821,26.164 17.5,31C 11.4034,31.1475 10.0701,28.6475 13.5,23.5 Z"/></g>
<g><path style="opacity:1" fill="#fef3eb" d="M 46.5,28.5 C 48.1667,28.5 49.8333,28.5 51.5,28.5C 51.6499,32.1612 50.1499,33.1612 47,31.5C 46.5172,30.552 46.3505,29.552 46.5,28.5 Z"/></g>
<g><path style="opacity:1" fill="#ed8436" d="M 29.5,29.5 C 31.8568,29.3367 34.1902,29.5034 36.5,30C 38.4054,30.8261 38.7388,31.9928 37.5,33.5C 34.6341,32.2054 31.8007,32.2054 29,33.5C 28.6258,32.5838 28.1258,31.7504 27.5,31C 28.4158,30.7216 29.0825,30.2216 29.5,29.5 Z"/></g>
<g><path style="opacity:1" fill="#ee873b" d="M 17.5,40.5 C 18.5,40.5 19.5,40.5 20.5,40.5C 20.5,44.1667 20.5,47.8333 20.5,51.5C 19.5,51.5 18.5,51.5 17.5,51.5C 17.5,47.8333 17.5,44.1667 17.5,40.5 Z"/></g>
<g><path style="opacity:1" fill="#fef9f6" d="M 31.5,39.5 C 37.7649,39.3634 40.2649,42.3634 39,48.5C 35.287,52.4875 31.6203,52.4875 28,48.5C 26.6649,44.3919 27.8316,41.3919 31.5,39.5 Z"/></g>
<g><path style="opacity:1" fill="#ed8234" d="M 46.5,40.5 C 47.4959,40.4142 48.3292,40.7476 49,41.5C 49.6667,44.5 49.6667,47.5 49,50.5C 48.586,50.9574 48.086,51.2907 47.5,51.5C 46.5108,47.8927 46.1774,44.226 46.5,40.5 Z"/></g>
<g><path style="opacity:1" fill="#ec7f2e" d="M 28.5,58.5 C 31.4692,59.825 34.4692,59.825 37.5,58.5C 38.3857,59.325 38.719,60.325 38.5,61.5C 34.774,61.8226 31.1073,61.4892 27.5,60.5C 27.8627,59.8165 28.1961,59.1499 28.5,58.5 Z"/></g>
<g><path style="opacity:1" fill="#fef9f6" d="M 50.5,61.5 C 55.1585,61.0146 56.4919,62.848 54.5,67C 49.7282,67.8104 48.3948,65.9771 50.5,61.5 Z"/></g>
<g><path style="opacity:1" fill="#fcecdf" d="M 12.5,64.5 C 14.6246,65.3676 14.7913,66.3676 13,67.5C 11.3167,66.8235 11.1501,65.8235 12.5,64.5 Z"/></g>
<g><path style="opacity:1" fill="#8893ff" d="M 60.5,90.5 C 60.1765,97.0221 60.5098,103.355 61.5,109.5C 61.2172,110.289 60.7172,110.956 60,111.5C 59.1787,104.321 59.3454,97.3209 60.5,90.5 Z"/></g>
<g><path style="opacity:1" fill="#737dff" d="M 9.5,91.5 C 11.1238,91.3601 12.2904,92.0267 13,93.5C 13.4881,98.607 14.4881,103.607 16,108.5C 17.6607,102.856 19.1607,97.1894 20.5,91.5C 21.9778,91.238 23.3112,91.5713 24.5,92.5C 25.9899,97.486 27.4899,102.486 29,107.5C 30.9176,102.326 32.0843,96.9927 32.5,91.5C 33.8333,91.5 35.1667,91.5 36.5,91.5C 35.0385,98.141 33.7051,104.808 32.5,111.5C 30.396,111.799 28.396,111.466 26.5,110.5C 25.1788,106.216 24.0122,101.883 23,97.5C 21.2411,101.36 19.7411,105.36 18.5,109.5C 16.9255,110.631 15.2588,110.798 13.5,110C 11.0841,104.089 9.75075,97.9221 9.5,91.5 Z"/></g>
<g><path style="opacity:1" fill="#6d79ff" d="M 83.5,94.5 C 83.1667,94.5 82.8333,94.5 82.5,94.5C 80.9519,94.1788 80.2852,93.1788 80.5,91.5C 85.8437,91.334 91.1771,91.5006 96.5,92C 97.626,95.7436 97.7927,99.577 97,103.5C 95.4905,104.09 93.9905,104.756 92.5,105.5C 93.6477,107.149 94.981,108.649 96.5,110C 95.1667,110.667 93.8333,110.667 92.5,110C 90.1667,107.667 87.8333,105.333 85.5,103C 88.4816,102.502 91.4816,102.335 94.5,102.5C 94.5,99.8333 94.5,97.1667 94.5,94.5C 90.8333,94.5 87.1667,94.5 83.5,94.5 Z"/></g>
<g><path style="opacity:1" fill="#5f6fff" d="M 172.5,91.5 C 174.465,91.9483 174.798,92.9483 173.5,94.5C 172.614,93.675 172.281,92.675 172.5,91.5 Z"/></g>
<g><path style="opacity:1" fill="#7580ff" d="M 183.5,91.5 C 184.451,92.9187 184.784,94.5853 184.5,96.5C 186.5,96.5 188.5,96.5 190.5,96.5C 190.5,97.5 190.5,98.5 190.5,99.5C 188.5,99.5 186.5,99.5 184.5,99.5C 184.5,102.5 184.5,105.5 184.5,108.5C 186.167,108.5 187.833,108.5 189.5,108.5C 189.5,109.5 189.5,110.5 189.5,111.5C 186.635,111.945 184.135,111.278 182,109.5C 181.502,106.183 181.335,102.85 181.5,99.5C 180.127,99.6567 178.793,99.49 177.5,99C 180.241,97.0499 182.241,94.5499 183.5,91.5 Z"/></g>
<g><path style="opacity:1" fill="#5f6fff" d="M 82.5,94.5 C 82.8333,94.5 83.1667,94.5 83.5,94.5C 83.5,99.8333 83.5,105.167 83.5,110.5C 82.5,110.5 81.5,110.5 80.5,110.5C 80.3342,105.821 80.5008,101.155 81,96.5C 81.7172,95.9558 82.2172,95.2891 82.5,94.5 Z"/></g>
<g><path style="opacity:1" fill="#b0b8ff" d="M 173.5,97.5 C 173.56,96.9569 173.893,96.6236 174.5,96.5C 175.812,101.318 175.812,105.985 174.5,110.5C 174.818,105.968 174.485,101.634 173.5,97.5 Z"/></g>
<g><path style="opacity:1" fill="#7680ff" d="M 42.5,96.5 C 46.1817,96.3347 49.8484,96.5014 53.5,97C 55.461,104.697 52.461,107.364 44.5,105C 46.9368,103.625 49.6035,103.125 52.5,103.5C 52.5,102.167 52.5,100.833 52.5,99.5C 49.5,99.5 46.5,99.5 43.5,99.5C 43.5,102.5 43.5,105.5 43.5,108.5C 47.1667,108.5 50.8333,108.5 54.5,108.5C 54.5,109.5 54.5,110.5 54.5,111.5C 40.7572,114.099 36.7572,109.099 42.5,96.5 Z"/></g>
<g><path style="opacity:1" fill="#6976ff" d="M 61.5,109.5 C 60.5098,103.355 60.1765,97.0221 60.5,90.5C 60.7828,89.7109 61.2828,89.0442 62,88.5C 62.3333,91.8333 62.6667,95.1667 63,98.5C 66.1014,96.2799 69.4347,95.9465 73,97.5C 73.499,101.821 73.6657,106.154 73.5,110.5C 69.3998,110.763 65.3998,110.43 61.5,109.5 Z"/></g>
<g><path style="opacity:1" fill="#7a83ff" d="M 104.5,96.5 C 108.182,96.3347 111.848,96.5014 115.5,97C 117.461,104.697 114.461,107.364 106.5,105C 108.937,103.625 111.603,103.125 114.5,103.5C 114.5,102.167 114.5,100.833 114.5,99.5C 111.5,99.5 108.5,99.5 105.5,99.5C 105.5,102.5 105.5,105.5 105.5,108.5C 109.167,108.5 112.833,108.5 116.5,108.5C 116.5,109.5 116.5,110.5 116.5,111.5C 102.757,114.099 98.7572,109.099 104.5,96.5 Z"/></g>
<g><path style="opacity:1" fill="#727dff" d="M 123.5,96.5 C 126.85,96.335 130.183,96.5017 133.5,97C 130.983,99.2508 127.983,100.084 124.5,99.5C 124.5,102.5 124.5,105.5 124.5,108.5C 127.167,108.5 129.833,108.5 132.5,108.5C 132.5,109.5 132.5,110.5 132.5,111.5C 121.985,113.138 118.485,108.805 122,98.5C 122.717,97.9558 123.217,97.2891 123.5,96.5 Z"/></g>
<g><path style="opacity:1" fill="#5f6fff" d="M 136.5,97.5 C 137.8,99.223 138.467,101.39 138.5,104C 138.467,106.61 137.8,108.777 136.5,110.5C 136.5,106.167 136.5,101.833 136.5,97.5 Z"/></g>
<g><path style="opacity:1" fill="#5f6fff" d="M 152.5,97.5 C 154.125,100.891 155.125,104.558 155.5,108.5C 157.833,108.5 160.167,108.5 162.5,108.5C 162.5,108.833 162.5,109.167 162.5,109.5C 159.435,110.818 156.269,110.818 153,109.5C 152.501,105.514 152.334,101.514 152.5,97.5 Z"/></g>
<g><path style="opacity:1" fill="#8994ff" d="M 152.5,97.5 C 153.209,96.596 154.209,96.2627 155.5,96.5C 155.5,100.5 155.5,104.5 155.5,108.5C 155.125,104.558 154.125,100.891 152.5,97.5 Z"/></g>
<g><path style="opacity:1" fill="#8d97ff" d="M 166.5,97.5 C 165.2,99.223 164.533,101.39 164.5,104C 164.533,106.61 165.2,108.777 166.5,110.5C 166.265,111.097 165.765,111.43 165,111.5C 163.989,110.944 163.156,110.278 162.5,109.5C 162.5,109.167 162.5,108.833 162.5,108.5C 163.483,104.702 163.817,100.702 163.5,96.5C 164.791,96.2627 165.791,96.596 166.5,97.5 Z"/></g>
<g><path style="opacity:1" fill="#5f6fff" d="M 166.5,97.5 C 166.5,101.833 166.5,106.167 166.5,110.5C 165.2,108.777 164.533,106.61 164.5,104C 164.533,101.39 165.2,99.223 166.5,97.5 Z"/></g>
<g><path style="opacity:1" fill="#5f6fff" d="M 173.5,97.5 C 174.485,101.634 174.818,105.968 174.5,110.5C 172.577,106.971 171.911,102.971 172.5,98.5C 173.167,98.5 173.5,98.1667 173.5,97.5 Z"/></g>
<g><path style="opacity:1" fill="#f7f7ff" d="M 62.5,99.5 C 65.5,99.5 68.5,99.5 71.5,99.5C 71.5,102.5 71.5,105.5 71.5,108.5C 68.5,108.5 65.5,108.5 62.5,108.5C 62.5,105.5 62.5,102.5 62.5,99.5 Z"/></g>
<g><path style="opacity:1" fill="#848eff" d="M 136.5,97.5 C 137.91,96.1716 139.076,96.5049 140,98.5C 141.808,96.6041 143.975,96.1041 146.5,97C 147.76,98.8138 147.76,100.647 146.5,102.5C 145.614,101.675 145.281,100.675 145.5,99.5C 143.5,99.5 141.5,99.5 139.5,99.5C 139.5,103.5 139.5,107.5 139.5,111.5C 138.209,111.737 137.209,111.404 136.5,110.5C 137.8,108.777 138.467,106.61 138.5,104C 138.467,101.39 137.8,99.223 136.5,97.5 Z"/></g>
<g><path style="opacity:1" fill="#d4d8ff" d="M 172.5,98.5 C 171.911,102.971 172.577,106.971 174.5,110.5C 173.791,111.404 172.791,111.737 171.5,111.5C 171.182,106.968 171.515,102.634 172.5,98.5 Z"/></g>
</svg>
