<?xml version="1.0" encoding="UTF-8"?>
<!DOCTYPE svg PUBLIC "-//W3C//DTD SVG 1.1//EN" "http://www.w3.org/Graphics/SVG/1.1/DTD/svg11.dtd">
<svg xmlns="http://www.w3.org/2000/svg" version="1.1" width="200px" height="200px" style="shape-rendering:geometricPrecision; text-rendering:geometricPrecision; image-rendering:optimizeQuality; fill-rule:evenodd; clip-rule:evenodd" xmlns:xlink="http://www.w3.org/1999/xlink">
<g><path style="opacity:1" fill="#5f6ffe" d="M -0.5,-0.5 C 66.1667,-0.5 132.833,-0.5 199.5,-0.5C 199.5,66.1667 199.5,132.833 199.5,199.5C 132.833,199.5 66.1667,199.5 -0.5,199.5C -0.5,132.833 -0.5,66.1667 -0.5,-0.5 Z"/></g>
<g><path style="opacity:1" fill="#e27a39" d="M 12.5,20.5 C 20.4001,20.3858 23.4001,24.0525 21.5,31.5C 23.5,34.1667 25.8333,36.5 28.5,38.5C 31.8333,35.8333 35.1667,35.8333 38.5,38.5C 42.7836,36.1268 44.6169,32.4601 44,27.5C 46.76,25.297 49.76,24.9637 53,26.5C 55.2045,32.9901 52.7045,36.1568 45.5,36C 41.5751,38.2735 40.5751,41.4402 42.5,45.5C 42.5142,47.5925 41.8476,49.4259 40.5,51C 42.8333,53.3333 45.1667,55.6667 47.5,58C 50.1667,58.3333 52.8333,58.6667 55.5,59C 59.0917,61.9707 59.4251,65.304 56.5,69C 49.0178,71.5401 45.5178,68.7068 46,60.5C 43.6506,57.9832 41.1506,55.6499 38.5,53.5C 34.8165,54.5717 31.1499,54.7384 27.5,54C 24.3333,57.1667 21.1667,60.3333 18,63.5C 17.7315,70.4648 14.7315,72.1314 9,68.5C 8.70642,63.4589 11.2064,60.9589 16.5,61C 19.8832,57.9533 22.8832,54.62 25.5,51C 24.4841,47.1629 24.3174,43.3295 25,39.5C 23,37.5 21,35.5 19,33.5C 11.6778,35.1851 8.34445,32.1851 9,24.5C 10.3756,23.2949 11.5423,21.9616 12.5,20.5 Z"/></g>
<g><path style="opacity:1" fill="#6b6ff1" d="M 13.5,23.5 C 19.4877,23.664 20.821,26.164 17.5,31C 11.4034,31.1475 10.0701,28.6475 13.5,23.5 Z"/></g>
<g><path style="opacity:1" fill="#716feb" d="M 46.5,28.5 C 48.1667,28.5 49.8333,28.5 51.5,28.5C 51.6499,32.1612 50.1499,33.1612 47,31.5C 46.5172,30.552 46.3505,29.552 46.5,28.5 Z"/></g>
<g><path style="opacity:1" fill="#e27a38" d="M 29.5,29.5 C 31.8568,29.3367 34.1902,29.5034 36.5,30C 38.4054,30.8261 38.7388,31.9928 37.5,33.5C 34.6341,32.2054 31.8007,32.2054 29,33.5C 28.6258,32.5838 28.1258,31.7504 27.5,31C 28.4158,30.7216 29.0825,30.2216 29.5,29.5 Z"/></g>
<g><path style="opacity:1" fill="#e0793d" d="M 17.5,40.5 C 18.5,40.5 19.5,40.5 20.5,40.5C 20.5,44.1667 20.5,47.8333 20.5,51.5C 19.5,51.5 18.5,51.5 17.5,51.5C 17.5,47.8333 17.5,44.1667 17.5,40.5 Z"/></g>
<g><path style="opacity:1" fill="#686ff6" d="M 31.5,39.5 C 37.7649,39.3634 40.2649,42.3634 39,48.5C 35.287,52.4875 31.6203,52.4875 28,48.5C 26.6649,44.3919 27.8316,41.3919 31.5,39.5 Z"/></g>
<g><path style="opacity:1" fill="#e47a35" d="M 46.5,40.5 C 47.4959,40.4142 48.3292,40.7476 49,41.5C 49.6667,44.5 49.6667,47.5 49,50.5C 48.586,50.9574 48.086,51.2907 47.5,51.5C 46.5108,47.8927 46.1774,44.226 46.5,40.5 Z"/></g>
<g><path style="opacity:1" fill="#e67a31" d="M 28.5,58.5 C 31.5047,59.7237 34.5047,59.7237 37.5,58.5C 38.3857,59.325 38.719,60.325 38.5,61.5C 34.774,61.8226 31.1073,61.4892 27.5,60.5C 27.8627,59.8165 28.1961,59.1499 28.5,58.5 Z"/></g>
<g><path style="opacity:1" fill="#666ff6" d="M 50.5,61.5 C 55.1585,61.0146 56.4919,62.848 54.5,67C 49.7282,67.8104 48.3948,65.9771 50.5,61.5 Z"/></g>
<g><path style="opacity:1" fill="#7870df" d="M 12.5,64.5 C 14.6246,65.3676 14.7913,66.3676 13,67.5C 11.3167,66.8235 11.1501,65.8235 12.5,64.5 Z"/></g>
<g><path style="opacity:1" fill="#d8d9eb" d="M 9.5,91.5 C 11.1238,91.3601 12.2904,92.0267 13,93.5C 14,98.5 15,103.5 16,108.5C 17.4892,103.543 18.8225,98.5435 20,93.5C 21.6667,90.8333 23.3333,90.8333 25,93.5C 26.3333,98.1667 27.6667,102.833 29,107.5C 30.4876,102.228 31.6542,96.8947 32.5,91.5C 33.8333,91.5 35.1667,91.5 36.5,91.5C 34.9513,98.1257 33.618,104.792 32.5,111.5C 30.5,111.5 28.5,111.5 26.5,111.5C 25.3991,106.833 24.2325,102.166 23,97.5C 21.1955,102.045 19.6955,106.712 18.5,111.5C 16.5,111.5 14.5,111.5 12.5,111.5C 11.7138,104.785 10.7138,98.1179 9.5,91.5 Z"/></g>
<g><path style="opacity:1" fill="#e2e2ea" d="M 94.5,94.5 C 90.03,93.5139 85.3633,93.1805 80.5,93.5C 82.7432,92.1883 85.4098,91.5217 88.5,91.5C 91.1667,91.6667 93.8333,91.8333 96.5,92C 97.626,95.7436 97.7927,99.577 97,103.5C 95.4905,104.09 93.9905,104.756 92.5,105.5C 93.8333,107.5 95.5,109.167 97.5,110.5C 96.277,111.614 94.9437,111.781 93.5,111C 90.8333,108.333 88.1667,105.667 85.5,103C 88.4816,102.502 91.4816,102.335 94.5,102.5C 94.5,99.8333 94.5,97.1667 94.5,94.5 Z"/></g>
<g><path style="opacity:1" fill="#d9d9ec" d="M 172.5,91.5 C 173.5,91.5 174.5,91.5 175.5,91.5C 175.5,92.5 175.5,93.5 175.5,94.5C 174.5,94.5 173.5,94.5 172.5,94.5C 172.5,93.5 172.5,92.5 172.5,91.5 Z"/></g>
<g><path style="opacity:1" fill="#d7d8ec" d="M 183.5,91.5 C 184.451,92.9187 184.784,94.5853 184.5,96.5C 186.5,96.5 188.5,96.5 190.5,96.5C 190.5,97.5 190.5,98.5 190.5,99.5C 188.5,99.5 186.5,99.5 184.5,99.5C 184.5,102.5 184.5,105.5 184.5,108.5C 186.5,108.5 188.5,108.5 190.5,108.5C 190.5,109.5 190.5,110.5 190.5,111.5C 187.315,111.98 184.481,111.314 182,109.5C 181.502,106.183 181.335,102.85 181.5,99.5C 180.127,99.6567 178.793,99.49 177.5,99C 180.241,97.0499 182.241,94.5499 183.5,91.5 Z"/></g>
<g><path style="opacity:1" fill="#8f98f7" d="M 80.5,93.5 C 85.3633,93.1805 90.03,93.5139 94.5,94.5C 91.1667,94.5 87.8333,94.5 84.5,94.5C 84.8214,100.026 84.4881,105.36 83.5,110.5C 83.8214,104.974 83.4881,99.6405 82.5,94.5C 81.5084,94.6716 80.8417,94.3382 80.5,93.5 Z"/></g>
<g><path style="opacity:1" fill="#e4e4e9" d="M 82.5,94.5 C 83.4881,99.6405 83.8214,104.974 83.5,110.5C 82.791,111.404 81.791,111.737 80.5,111.5C 80.3341,106.489 80.5007,101.489 81,96.5C 81.7172,95.9558 82.2172,95.2891 82.5,94.5 Z"/></g>
<g><path style="opacity:1" fill="#a1a9f4" d="M 173.5,97.5 C 173.56,96.9569 173.893,96.6236 174.5,96.5C 175.494,101.456 175.827,106.456 175.5,111.5C 174.209,111.737 173.209,111.404 172.5,110.5C 173.8,108.777 174.467,106.61 174.5,104C 174.496,101.639 174.163,99.4726 173.5,97.5 Z"/></g>
<g><path style="opacity:1" fill="#dcdceb" d="M 54.5,108.5 C 50.9707,110.423 46.9707,111.089 42.5,110.5C 41.8826,110.389 41.3826,110.056 41,109.5C 37.9925,97.5069 42.3258,93.5069 54,97.5C 55.1412,105.008 51.9745,107.508 44.5,105C 46.6688,102.797 49.3354,101.964 52.5,102.5C 52.5,101.5 52.5,100.5 52.5,99.5C 49.5,99.5 46.5,99.5 43.5,99.5C 43.5,102.5 43.5,105.5 43.5,108.5C 47.1667,108.5 50.8333,108.5 54.5,108.5 Z"/></g>
<g><path style="opacity:1" fill="#d6d7ec" d="M 61.5,88.5 C 62.3213,91.6414 62.8213,94.9748 63,98.5C 66.6667,95.8333 70.3333,95.8333 74,98.5C 77.0192,110.493 73.0192,114.16 62,109.5C 61.3333,110.167 60.6667,110.833 60,111.5C 58.9223,103.565 59.4223,95.898 61.5,88.5 Z"/></g>
<g><path style="opacity:1" fill="#d6d7ec" d="M 116.5,108.5 C 112.971,110.423 108.971,111.089 104.5,110.5C 103.883,110.389 103.383,110.056 103,109.5C 100.333,96.5 105,92.8333 117,98.5C 117.92,101.308 117.087,103.475 114.5,105C 111.833,105.667 109.167,105.667 106.5,105C 108.669,102.797 111.335,101.964 114.5,102.5C 114.5,101.5 114.5,100.5 114.5,99.5C 111.5,99.5 108.5,99.5 105.5,99.5C 105.5,102.5 105.5,105.5 105.5,108.5C 109.167,108.5 112.833,108.5 116.5,108.5 Z"/></g>
<g><path style="opacity:1" fill="#dadbeb" d="M 123.5,96.5 C 126.85,96.335 130.183,96.5017 133.5,97C 130.983,99.2508 127.983,100.084 124.5,99.5C 124.5,102.5 124.5,105.5 124.5,108.5C 127.5,108.5 130.5,108.5 133.5,108.5C 133.5,109.5 133.5,110.5 133.5,111.5C 122.49,113.653 118.657,109.32 122,98.5C 122.717,97.9558 123.217,97.2891 123.5,96.5 Z"/></g>
<g><path style="opacity:1" fill="#dedfea" d="M 152.5,96.5 C 153.5,96.5 154.5,96.5 155.5,96.5C 155.5,100.5 155.5,104.5 155.5,108.5C 158.167,108.5 160.833,108.5 163.5,108.5C 163.5,104.5 163.5,100.5 163.5,96.5C 164.5,96.5 165.5,96.5 166.5,96.5C 166.5,101.5 166.5,106.5 166.5,111.5C 164.876,111.64 163.71,110.973 163,109.5C 159.667,110.833 156.333,110.833 153,109.5C 152.501,105.179 152.334,100.846 152.5,96.5 Z"/></g>
<g><path style="opacity:1" fill="#e8e9e8" d="M 173.5,97.5 C 174.163,99.4726 174.496,101.639 174.5,104C 174.467,106.61 173.8,108.777 172.5,110.5C 172.231,106.069 172.564,101.735 173.5,97.5 Z"/></g>
<g><path style="opacity:1" fill="#6775fd" d="M 62.5,99.5 C 65.5,99.5 68.5,99.5 71.5,99.5C 71.5,102.5 71.5,105.5 71.5,108.5C 68.5,108.5 65.5,108.5 62.5,108.5C 62.5,105.5 62.5,102.5 62.5,99.5 Z"/></g>
<g><path style="opacity:1" fill="#d1d3ec" d="M 136.5,96.5 C 138.124,96.3601 139.29,97.0267 140,98.5C 145.186,94.9626 147.686,96.296 147.5,102.5C 146.5,102.5 145.5,102.5 144.5,102.5C 144.5,101.5 144.5,100.5 144.5,99.5C 142.833,99.5 141.167,99.5 139.5,99.5C 139.5,103.5 139.5,107.5 139.5,111.5C 138.5,111.5 137.5,111.5 136.5,111.5C 136.5,106.5 136.5,101.5 136.5,96.5 Z"/></g>
<g><path style="opacity:1" fill="#a1a9f4" d="M 54.5,108.5 C 55.404,109.209 55.7373,110.209 55.5,111.5C 50.9677,111.818 46.6344,111.485 42.5,110.5C 46.9707,111.089 50.9707,110.423 54.5,108.5 Z"/></g>
<g><path style="opacity:1" fill="#a1a9f4" d="M 116.5,108.5 C 117.404,109.209 117.737,110.209 117.5,111.5C 112.968,111.818 108.634,111.485 104.5,110.5C 108.971,111.089 112.971,110.423 116.5,108.5 Z"/></g>
</svg>
