<?xml version="1.0" encoding="UTF-8"?>
<svg version="1.1" xmlns="http://www.w3.org/2000/svg" width="2000" height="1500">
<path d="M0 0 C660 0 1320 0 2000 0 C2000 495 2000 990 2000 1500 C1340 1500 680 1500 0 1500 C0 1005 0 510 0 0 Z " fill="#5F6FFE" transform="translate(0,0)"/>
<path d="M0 0 C0.69265961 0.15333801 1.38531921 0.30667603 2.09896851 0.46466064 C14.3386203 3.19792138 25.90061844 6.85622539 37.375 11.9375 C38.17115723 12.28006836 38.96731445 12.62263672 39.78759766 12.97558594 C62.56846026 22.84192926 82.47755506 36.80613676 100.375 53.9375 C100.92800781 54.45795898 101.48101563 54.97841797 102.05078125 55.51464844 C116.22687193 68.89873405 127.61569951 84.08800396 137.375 100.9375 C137.7560791 101.59121582 138.1371582 102.24493164 138.52978516 102.91845703 C165.10170397 149.09947826 171.66960647 205.52087968 158.375 256.9375 C158.17422852 257.71818848 157.97345703 258.49887695 157.76660156 259.30322266 C143.80713905 312.24808703 108.57848587 358.13225633 61.38427734 385.77441406 C60.72121582 386.15823242 60.0581543 386.54205078 59.375 386.9375 C58.71064941 387.32389648 58.04629883 387.71029297 57.36181641 388.10839844 C42.85628579 396.43416126 27.41131019 402.28405044 11.375 406.9375 C10.45589844 407.2159375 9.53679687 407.494375 8.58984375 407.78125 C3.09203048 409.36552552 -2.43720618 410.54484631 -8.0625 411.5625 C-9.06325562 411.7471582 -9.06325562 411.7471582 -10.08422852 411.93554688 C-62.79957176 421.08475184 -119.47025819 408.6245659 -163.1875 377.90722656 C-172.15825409 371.47148699 -180.58213882 364.50135422 -188.625 356.9375 C-189.46272949 356.15076904 -189.46272949 356.15076904 -190.31738281 355.34814453 C-204.85328899 341.58243027 -216.58009612 326.2313912 -226.625 308.9375 C-227.00076172 308.29973633 -227.37652344 307.66197266 -227.76367188 307.00488281 C-254.65048586 260.84996209 -260.92350526 202.44923661 -247.625 150.9375 C-238.33299034 117.422976 -221.33607047 86.49379304 -197.09960938 61.46337891 C-196.07865211 60.40692478 -195.06476855 59.34360583 -194.05664062 58.27490234 C-145.2969892 6.61705181 -69.13956153 -15.55444057 0 0 Z " fill="#5F6EFE" transform="translate(505.625,545.0625)"/>
<path d="M0 0 C0.86044922 0.99193359 0.86044922 0.99193359 1.73828125 2.00390625 C4.69614476 5.20174736 7.69544921 7.98858061 11.11328125 10.69140625 C15.8548645 14.49523905 20.31299118 18.52487943 24.73828125 22.69140625 C25.70604492 23.60212891 25.70604492 23.60212891 26.69335938 24.53125 C27.93001469 25.69531072 29.16666842 26.85937314 30.40332031 28.0234375 C35.36455505 32.66999997 40.28143485 36.96056475 46.05078125 40.56640625 C46.38078125 40.23640625 46.71078125 39.90640625 47.05078125 39.56640625 C51.43344269 39.04377201 56.06829133 38.54269277 60.078125 40.61328125 C62.83150869 42.90215767 64.84804892 44.90466581 65.2890625 48.51953125 C65.4702317 54.12624137 64.68202945 57.05485546 61.05078125 61.56640625 C59.71861078 64.23074719 60.34264923 65.10160055 61.25073242 67.90161133 C61.53820847 68.80047562 61.82568451 69.6993399 62.12187195 70.6254425 C62.44259171 71.60240585 62.76331146 72.5793692 63.09375 73.5859375 C63.41861893 74.59548996 63.74348785 75.60504242 64.07820129 76.64518738 C65.12461807 79.89205109 66.18117887 83.13550756 67.23828125 86.37890625 C67.93233782 88.52386307 68.6257054 90.66904297 69.31835938 92.81445312 C70.32724301 95.93917589 71.33655998 99.06374712 72.34867859 102.18742371 C74.32859628 108.3023057 76.26280439 114.42662941 78.1315918 120.57641602 C79.00818263 123.42783911 79.91128103 126.26985024 80.8249054 129.10960388 C81.43684257 131.01272111 82.04365334 132.91748423 82.65039062 134.82226562 C83.26322751 136.74564579 83.87631361 138.66897166 84.50073242 140.58862305 C85.11680117 142.48569727 85.71877464 144.38733079 86.3203125 146.2890625 C86.67714111 147.40031494 87.03396973 148.51156738 87.40161133 149.65649414 C88.05078125 152.56640625 88.05078125 152.56640625 87.05078125 156.56640625 C43.98578125 157.06140625 43.98578125 157.06140625 0.05078125 157.56640625 C-4.89921875 167.13640625 -9.84921875 176.70640625 -14.94921875 186.56640625 C-20.94921875 197.12890625 -20.94921875 197.12890625 -23.38671875 201.2578125 C-25.03899254 204.75650226 -25.12869391 205.16490735 -23.94921875 208.56640625 C-23.59601563 209.21738281 -23.2428125 209.86835937 -22.87890625 210.5390625 C-21.21263612 214.17265158 -22.0163923 217.78102356 -22.94921875 221.56640625 C-25.31497271 225.53749326 -27.46648294 227.41965988 -31.94921875 228.56640625 C-36.94006684 229.01201769 -40.00000448 228.74771775 -43.94921875 225.56640625 C-46.48728572 222.15314377 -46.94921875 220.92728281 -46.94921875 216.56640625 C-47.55888489 216.51483871 -48.16855103 216.46327118 -48.79669189 216.41014099 C-54.82303628 215.85989982 -60.68845822 214.96781617 -66.62109375 213.7890625 C-67.50597473 213.61765244 -68.39085571 213.44624237 -69.30255127 213.26963806 C-72.10228879 212.72698122 -74.9008456 212.17855208 -77.69921875 211.62890625 C-83.98017661 210.39780783 -90.26332413 209.18351265 -96.55688477 208.01837158 C-98.78321705 207.59776768 -101.00134768 207.14659638 -103.22070312 206.69091797 C-105.07405273 206.34891357 -105.07405273 206.34891357 -106.96484375 206 C-108.01446289 205.7930249 -109.06408203 205.5860498 -110.14550781 205.37280273 C-113.20493587 205.29957847 -113.20493587 205.29957847 -115.69824219 207.97680664 C-116.44106445 208.83137451 -117.18388672 209.68594238 -117.94921875 210.56640625 C-121.65409707 212.41884541 -125.90536063 212.02492245 -129.94921875 211.56640625 C-133.10382077 209.79194262 -134.45659151 208.41091009 -136.26171875 205.31640625 C-137.17269732 201.67249197 -137.72008106 198.2592038 -136.94921875 194.56640625 C-136.08296875 193.61765625 -135.21671875 192.66890625 -134.32421875 191.69140625 C-131.78789039 188.96387931 -131.78789039 188.96387931 -131.8515625 186.640625 C-132.35505096 183.86424578 -133.10788278 181.26198071 -133.94921875 178.56640625 C-134.15015137 177.9204248 -134.35108398 177.27444336 -134.55810547 176.60888672 C-135.51927772 173.5315909 -136.49137574 170.45821925 -137.48461914 167.39111328 C-139.87522925 159.97307395 -141.94151697 152.48306276 -143.94433594 144.95214844 C-144.17797852 144.0759082 -144.41162109 143.19966797 -144.65234375 142.296875 C-144.87083984 141.46720215 -145.08933594 140.6375293 -145.31445312 139.78271484 C-145.95806987 137.3921841 -145.95806987 137.3921841 -147.18359375 134.4921875 C-148.99774117 127.55955272 -146.48181149 119.42341771 -145.2421875 112.4765625 C-145.07552078 111.53316513 -144.90885406 110.58976776 -144.73713684 109.61778259 C-144.38473109 107.62831124 -144.03084041 105.6391024 -143.67553711 103.65014648 C-143.14392591 100.66931793 -142.619508 97.68728701 -142.09570312 94.70507812 C-140.00840478 82.91817598 -137.66295901 71.22520244 -134.94921875 59.56640625 C-133.28466797 58.73071289 -133.28466797 58.73071289 -130.94921875 58.56640625 C-128.94152602 60.29961732 -127.31374802 61.95542216 -125.58203125 63.9375 C-124.52095286 65.08139845 -123.45840238 66.22393282 -122.39453125 67.36523438 C-120.73472344 69.17280318 -119.08811623 70.98811538 -117.46679688 72.83032227 C-111.00835595 80.42865097 -111.00835595 80.42865097 -102.18261719 84.31689453 C-98.70869408 84.29105094 -95.39701203 83.95031179 -91.94921875 83.56640625 C-91.06355225 83.75960449 -90.17788574 83.95280273 -89.26538086 84.15185547 C-86.97755578 84.78190046 -86.97755578 84.78190046 -85.09643555 83.76196289 C-84.53609619 83.33778076 -83.97575684 82.91359863 -83.3984375 82.4765625 C-82.78291016 82.02216797 -82.16738281 81.56777344 -81.53320312 81.09960938 C-80.90736328 80.61427734 -80.28152344 80.12894531 -79.63671875 79.62890625 C-78.99154297 79.14744141 -78.34636719 78.66597656 -77.68164062 78.16992188 C-76.09404257 76.98216333 -74.52022869 75.77602013 -72.94921875 74.56640625 C-73.55104628 68.66153312 -75.19601885 63.50425999 -77.22265625 57.94140625 C-77.54706696 57.03567871 -77.87147766 56.12995117 -78.20571899 55.19677734 C-78.89021329 53.28956832 -79.57788596 51.38349735 -80.26855469 49.47851562 C-81.32003408 46.57794991 -82.36204021 43.67412165 -83.40234375 40.76953125 C-84.0710635 38.90995798 -84.74031668 37.05057644 -85.41015625 35.19140625 C-85.87438492 33.90049072 -85.87438492 33.90049072 -86.34799194 32.58349609 C-87.69190413 28.8814345 -89.07003806 25.23704327 -90.68603516 21.64453125 C-92.05007472 18.3206405 -92.12949464 16.91052127 -90.94921875 13.56640625 C-89.16295346 11.78014096 -86.47694091 11.92523926 -84.0546875 11.55078125 C-82.80300781 11.35411865 -81.55132812 11.15745605 -80.26171875 10.95483398 C-79.59011719 10.85097382 -78.91851562 10.74711365 -78.2265625 10.6401062 C-74.67808497 10.09047564 -71.13194258 9.52627049 -67.5859375 8.9609375 C-66.86095062 8.84545059 -66.13596375 8.72996368 -65.38900757 8.61097717 C-58.39442031 7.48995281 -51.42027131 6.26276604 -44.44921875 5.00390625 C-43.31105713 4.79902588 -42.17289551 4.59414551 -41.00024414 4.38305664 C-36.53259461 3.57748849 -32.06551819 2.76877823 -27.59863281 1.95898438 C-24.42469349 1.38566398 -21.24961659 0.81908424 -18.07421875 0.25390625 C-17.13513672 0.08238037 -16.19605469 -0.08914551 -15.22851562 -0.26586914 C-3.24576927 -2.38716898 -3.24576927 -2.38716898 0 0 Z " fill="#E46677" transform="translate(490.94921875,636.43359375)"/>
<path d="M0 0 C0.69265961 0.15333801 1.38531921 0.30667603 2.09896851 0.46466064 C14.3386203 3.19792138 25.90061844 6.85622539 37.375 11.9375 C38.17115723 12.28006836 38.96731445 12.62263672 39.78759766 12.97558594 C62.56846026 22.84192926 82.47755506 36.80613676 100.375 53.9375 C100.92800781 54.45795898 101.48101563 54.97841797 102.05078125 55.51464844 C116.22687193 68.89873405 127.61569951 84.08800396 137.375 100.9375 C137.7560791 101.59121582 138.1371582 102.24493164 138.52978516 102.91845703 C165.10170397 149.09947826 171.66960647 205.52087968 158.375 256.9375 C158.17422852 257.71818848 157.97345703 258.49887695 157.76660156 259.30322266 C143.80713905 312.24808703 108.57848587 358.13225633 61.38427734 385.77441406 C60.72121582 386.15823242 60.0581543 386.54205078 59.375 386.9375 C58.71064941 387.32389648 58.04629883 387.71029297 57.36181641 388.10839844 C42.85628579 396.43416126 27.41131019 402.28405044 11.375 406.9375 C10.45589844 407.2159375 9.53679687 407.494375 8.58984375 407.78125 C3.09203048 409.36552552 -2.43720618 410.54484631 -8.0625 411.5625 C-9.06325562 411.7471582 -9.06325562 411.7471582 -10.08422852 411.93554688 C-62.79957176 421.08475184 -119.47025819 408.6245659 -163.1875 377.90722656 C-172.15825409 371.47148699 -180.58213882 364.50135422 -188.625 356.9375 C-189.46272949 356.15076904 -189.46272949 356.15076904 -190.31738281 355.34814453 C-204.85328899 341.58243027 -216.58009612 326.2313912 -226.625 308.9375 C-227.00076172 308.29973633 -227.37652344 307.66197266 -227.76367188 307.00488281 C-254.65048586 260.84996209 -260.92350526 202.44923661 -247.625 150.9375 C-238.33299034 117.422976 -221.33607047 86.49379304 -197.09960938 61.46337891 C-196.07865211 60.40692478 -195.06476855 59.34360583 -194.05664062 58.27490234 C-145.2969892 6.61705181 -69.13956153 -15.55444057 0 0 Z M-180.19677734 66.57226562 C-181.47262576 67.79184585 -182.76089562 68.9984009 -184.05078125 70.203125 C-208.43357733 93.58982106 -226.32968855 126.8998893 -233.171875 159.84375 C-233.64632478 162.03603519 -234.19722293 164.20124152 -234.75 166.375 C-237.7291175 179.04420984 -238.02794535 191.61343726 -238.0625 204.5625 C-238.06858276 205.42019989 -238.07466553 206.27789978 -238.08093262 207.16159058 C-238.23087732 239.51602461 -229.98050329 269.52341766 -214.625 297.9375 C-214.13797607 298.85136475 -214.13797607 298.85136475 -213.64111328 299.78369141 C-209.01802363 308.40624837 -203.75242706 316.30561524 -197.625 323.9375 C-197.00069092 324.71625488 -197.00069092 324.71625488 -196.36376953 325.51074219 C-164.4797027 364.99082494 -118.48944336 391.93198235 -67.74969482 397.7461853 C-61.23755291 398.33256055 -54.68336902 398.26944601 -48.15039062 398.25317383 C-45.52431041 398.25002911 -42.89937834 398.27351252 -40.2734375 398.29882812 C-24.05009589 398.36112931 -8.17079945 396.55635674 7.375 391.75 C8.37354004 391.44811768 9.37208008 391.14623535 10.40087891 390.83520508 C42.13775675 381.00780704 68.25784052 364.64586852 92.375 341.9375 C93.44041016 340.95330078 93.44041016 340.95330078 94.52734375 339.94921875 C100.86982446 333.89208482 106.11140157 326.92588167 111.375 319.9375 C112.0040625 319.10347656 112.633125 318.26945312 113.28125 317.41015625 C121.93793113 305.46638629 129.08741285 292.56972787 134.58691406 278.89501953 C135.10591413 277.60587997 135.63371186 276.32024206 136.17089844 275.03857422 C141.06369304 263.35695151 143.92454708 251.3415922 146.375 238.9375 C146.65863403 237.64984741 146.65863403 237.64984741 146.94799805 236.33618164 C148.77144686 227.17345291 148.71241554 218.00899182 148.69067383 208.7043457 C148.68753332 205.90470679 148.71097428 203.10614821 148.73632812 200.30664062 C148.79347686 184.36872668 146.95612221 169.03989284 142.5625 153.6875 C142.30388184 152.76694824 142.04526367 151.84639648 141.77880859 150.89794922 C135.08740238 127.68675394 123.49969784 104.78178966 108.375 85.9375 C107.96411133 85.42364746 107.55322266 84.90979492 107.12988281 84.38037109 C83.53165099 55.07637887 54.02386192 34.37885414 18.64257812 21.74951172 C16.78073064 21.08279071 14.92802344 20.39059772 13.078125 19.69140625 C-53.47113898 -4.46560059 -130.62804083 19.14079498 -180.19677734 66.57226562 Z " fill="#E76675" transform="translate(505.625,545.0625)"/>
<path d="M0 0 C61.57692308 0 61.57692308 0 73.5625 6.375 C74.65691406 6.93960938 75.75132813 7.50421875 76.87890625 8.0859375 C85.99637099 13.67737395 93.73898164 22.7716104 96.6171875 33.24609375 C99.97554023 48.72671969 99.02729587 65.23182349 90.6875 79 C86.35637506 85.22309387 82.26735758 90.40805847 75 93 C79.83476607 102.43627588 85.53793707 111.27886203 91.23046875 120.2109375 C94.49288616 125.35302587 97.71336577 130.52135499 100.9375 135.6875 C101.56390381 136.69063232 102.19030762 137.69376465 102.83569336 138.72729492 C104.01605976 140.61768955 105.19570674 142.50853365 106.37451172 144.39990234 C107.42839767 146.08567665 108.48703463 147.76849374 109.55126953 149.44775391 C113 154.89764445 113 154.89764445 113 156 C89.63488617 159.13690468 89.63488617 159.13690468 82.62353516 154.39160156 C78.51470491 149.87731565 76.00871308 144.44720638 73.45263672 138.95214844 C70.95304043 133.87229663 67.78779508 129.22794999 64.6875 124.5 C63.5197799 122.6629535 62.35433213 120.82446018 61.19140625 118.984375 C57.97721166 113.93689905 54.65891793 108.97065106 51.2578125 104.046875 C50 102 50 102 50 100 C41.09 100 32.18 100 23 100 C23 118.48 23 136.96 23 156 C15.41 156 7.82 156 0 156 C0 104.52 0 53.04 0 0 Z " fill="#FEFEFF" transform="translate(1167,674)"/>
<path d="M0 0 C8.91 0 17.82 0 27 0 C50.31176258 62.1910412 50.31176258 62.1910412 57.3125 83.375 C57.55021118 84.09200073 57.78792236 84.80900146 58.03283691 85.54772949 C60.26538949 92.30850941 62.40886655 99.05527387 64 106 C64.24782227 105.24968506 64.49564453 104.49937012 64.75097656 103.72631836 C67.37271109 96.07959266 70.36701199 88.65902799 73.609375 81.25390625 C74.02409058 80.30647552 74.43880615 79.3590448 74.86608887 78.38290405 C76.59779163 74.43820817 78.33608965 70.49649242 80.08154297 66.55786133 C81.3691584 63.64727923 82.64610088 60.732194 83.921875 57.81640625 C84.31663025 56.93400772 84.7113855 56.05160919 85.11810303 55.14247131 C88.7394308 46.83746148 89.57654507 41.15180422 86.5078125 32.6171875 C86.24241669 31.83989288 85.97702087 31.06259827 85.70358276 30.26174927 C84.8581841 27.79435291 83.99248037 25.3347095 83.125 22.875 C82.26888861 20.4068747 81.41705657 17.93733321 80.56784058 15.46682739 C80.03966227 13.93474615 79.50678071 12.40427584 78.96853638 10.8757019 C77.69663695 7.2294569 76.76131967 3.80659836 76 0 C83.59 0 91.18 0 99 0 C119.09645919 52.54939231 119.09645919 52.54939231 128.64041138 77.75772095 C129.37830633 79.70607291 130.11697041 81.65413375 130.85641479 83.60189819 C131.88047776 86.30016239 132.90161712 88.9995139 133.921875 91.69921875 C134.22192947 92.4883667 134.52198395 93.27751465 134.83113098 94.09057617 C136.06672846 97.36929136 137.19728478 100.59010837 138 104 C138.14397217 103.45625732 138.28794434 102.91251465 138.4362793 102.35229492 C143.70924438 82.74768116 150.74776405 63.93585751 158 45 C158.74580978 43.04851848 159.49157625 41.09702042 160.23730469 39.14550781 C162.56744162 33.0524747 164.90670656 26.96298403 167.25 20.875 C167.81989655 19.39259827 167.81989655 19.39259827 168.40130615 17.88024902 C169.47798483 15.08302135 170.55857176 12.28733984 171.640625 9.4921875 C172.12878189 8.22291916 172.12878189 8.22291916 172.62680054 6.92800903 C174.88482154 1.11517846 174.88482154 1.11517846 176 0 C177.78071246 -0.08726223 179.5648314 -0.10699041 181.34765625 -0.09765625 C182.42724609 -0.09443359 183.50683594 -0.09121094 184.61914062 -0.08789062 C186.32360352 -0.07532227 186.32360352 -0.07532227 188.0625 -0.0625 C189.77276367 -0.05573242 189.77276367 -0.05573242 191.51757812 -0.04882812 C194.34510351 -0.03699747 197.1725264 -0.0205141 200 0 C199.40589876 3.28776334 198.6157763 6.30649083 197.42797852 9.42749023 C197.10502808 10.28153946 196.78207764 11.13558868 196.44934082 12.01551819 C195.91947571 13.39809059 195.91947571 13.39809059 195.37890625 14.80859375 C195.00785767 15.78545639 194.63680908 16.76231903 194.2545166 17.76878357 C193.02806582 20.99331496 191.79550932 24.21547132 190.5625 27.4375 C189.69774103 29.70520494 188.83307765 31.97294634 187.96850586 34.24072266 C181.69395733 50.67492313 175.30997255 67.06505021 168.87695312 83.43774414 C162.87305839 98.72498793 156.95394804 114.04409334 151.0625 129.375 C150.62712921 130.5075824 150.19175842 131.64016479 149.74319458 132.80706787 C148.50656221 136.02478689 147.27062774 139.24277259 146.03515625 142.4609375 C145.67035156 143.41093628 145.30554688 144.36093506 144.9296875 145.33972168 C142.93079322 150.55164474 140.95288376 155.77065796 139 161 C135.57329319 159.2866466 134.89800163 155.23286246 133.56005859 151.80834961 C133.21839157 150.94988937 132.87672455 150.09142914 132.52470398 149.20695496 C131.39270723 146.35797655 130.27057101 143.50521983 129.1484375 140.65234375 C128.36718947 138.68055253 127.58533176 136.70900278 126.80288696 134.73768616 C124.74181344 129.54015222 122.68906892 124.33936725 120.63800049 119.13787842 C118.54490579 113.83408387 116.44400761 108.53338306 114.34375 103.23242188 C110.22149262 92.82463963 106.10802141 82.4134087 102 72 C99.07042972 78.41447336 96.16801098 84.83802741 93.35546875 91.3046875 C92.86468338 92.43057533 92.86468338 92.43057533 92.36398315 93.57920837 C91.66543215 95.1822349 90.9672996 96.78544383 90.26956177 98.38882446 C89.16644712 100.92337169 88.06170529 103.45720535 86.95678711 105.9909668 C83.0793662 114.88844226 79.22349963 123.79472983 75.3984375 132.71484375 C74.66258138 134.4279251 73.9266613 136.14097898 73.19067383 137.85400391 C71.78936822 141.11576175 70.39440238 144.38013738 69.00268555 147.64599609 C68.36791502 149.1247772 67.73291794 150.60346108 67.09765625 152.08203125 C66.66910843 153.09486427 66.66910843 153.09486427 66.23190308 154.12815857 C65.05239448 156.8610568 64.12571031 158.87428969 62 161 C58.73116602 153.99416065 55.73015606 146.9514986 53.0234375 139.7109375 C52.47938766 138.27054611 52.47938766 138.27054611 51.92434692 136.80105591 C51.14492606 134.73699463 50.36704318 132.67235202 49.59057617 130.60717773 C47.48297103 125.0031238 45.36259872 119.4039061 43.2421875 113.8046875 C42.80626282 112.65309143 42.37033813 111.50149536 41.92120361 110.31500244 C37.51260426 98.6845888 33.01210242 87.0905596 28.5 75.5 C21.70223087 58.02592641 14.97735469 40.52521143 8.3125 23 C7.89000977 21.89068115 7.46751953 20.7813623 7.03222656 19.63842773 C5.84900813 16.53050423 4.66817295 13.42168775 3.48828125 10.3125 C3.13304886 9.37966187 2.77781647 8.44682373 2.41181946 7.48571777 C2.09198593 6.64093872 1.7721524 5.79615967 1.44262695 4.92578125 C1.16240189 4.18755127 0.88217682 3.44932129 0.59346008 2.6887207 C0 1 0 1 0 0 Z " fill="#FDFDFF" transform="translate(753,675)"/>
<path d="M0 0 C6.27 0 12.54 0 19 0 C19.33 29.04 19.66 58.08 20 88 C22.64 85.69 25.28 83.38 28 81 C30.86328125 79.2578125 30.86328125 79.2578125 33.3125 78.125 C34.13363281 77.73570312 34.95476562 77.34640625 35.80078125 76.9453125 C40.48897767 74.93013749 44.66116292 74.81656333 49.6875 74.8125 C50.46544922 74.80025391 51.24339844 74.78800781 52.04492188 74.77539062 C63.49821145 74.74673352 74.58430789 78.70096316 83.46875 86.0390625 C94.16272367 97.34999619 97.60900009 110.87992719 97.37890625 126.05078125 C96.08011643 139.58765249 89.98869239 151.34124796 79.640625 160.140625 C67.3205743 168.81569029 54.62892831 170.36301661 40 169 C32.18653906 167.087845 26.13662784 163.07451917 20 158 C19.67 160.97 19.34 163.94 19 167 C12.73 167 6.46 167 0 167 C0 111.89 0 56.78 0 0 Z " fill="#FBFCFF" transform="translate(1048,663)"/>
<path d="M0 0 C8.37353668 6.11310827 16.36651965 14.41739259 19.55078125 24.4921875 C19.44848633 26.47583008 19.44848633 26.47583008 18.55078125 28.4921875 C16.14697266 29.82568359 16.14697266 29.82568359 12.90234375 31.015625 C11.68490479 31.47291992 10.46746582 31.93021484 9.21313477 32.40136719 C7.86735169 32.88997791 6.52156715 33.37858457 5.17578125 33.8671875 C3.0890396 34.64481652 1.00460095 35.42841082 -1.07975769 36.21240234 C-2.54851944 36.76458868 -4.01794725 37.31500618 -5.48799133 37.86376953 C-14.34532587 41.17796232 -23.11370329 44.71225033 -31.88671875 48.2421875 C-33.44898267 48.86916059 -35.01131821 49.49595524 -36.57373047 50.12255859 C-40.1996872 51.57713259 -43.82473803 53.03393972 -47.44921875 54.4921875 C-45.02003386 60.91629402 -41.17528739 63.94207004 -35.26171875 67.3046875 C-27.23879155 70.69214565 -18.66585304 70.5893584 -10.51171875 67.6171875 C-8.81674592 66.92692707 -7.12875924 66.21919239 -5.44921875 65.4921875 C-3.78382952 64.82233608 -2.11752693 64.15473565 -0.44921875 63.4921875 C1.15898537 64.90426917 2.76218833 66.32204786 4.36328125 67.7421875 C5.25660156 68.53109375 6.14992188 69.32 7.0703125 70.1328125 C9.1920635 72.15098195 10.89332548 74.09135455 12.55078125 76.4921875 C-1.60304347 87.21295687 -14.92366642 90.07592659 -32.44921875 88.4921875 C-41.1410431 86.54417059 -47.90545545 82.4188572 -54.44921875 76.4921875 C-55.07441406 75.97011719 -55.69960937 75.44804688 -56.34375 74.91015625 C-63.2372849 68.73751389 -68.7154297 58.50623547 -69.68432617 49.24487305 C-70.47588686 34.63155421 -69.09559859 23.132936 -59.3828125 11.58203125 C-44.14045414 -4.89203283 -20.39368391 -12.5549633 0 0 Z " fill="#FCFCFF" transform="translate(1351.44921875,743.5078125)"/>
<path d="M0 0 C8.37353668 6.11310827 16.36651965 14.41739259 19.55078125 24.4921875 C19.44848633 26.47583008 19.44848633 26.47583008 18.55078125 28.4921875 C16.14697266 29.82568359 16.14697266 29.82568359 12.90234375 31.015625 C11.68490479 31.47291992 10.46746582 31.93021484 9.21313477 32.40136719 C7.86735169 32.88997791 6.52156715 33.37858457 5.17578125 33.8671875 C3.0890396 34.64481652 1.00460095 35.42841082 -1.07975769 36.21240234 C-2.54851944 36.76458868 -4.01794725 37.31500618 -5.48799133 37.86376953 C-14.34532587 41.17796232 -23.11370329 44.71225033 -31.88671875 48.2421875 C-33.44898267 48.86916059 -35.01131821 49.49595524 -36.57373047 50.12255859 C-40.1996872 51.57713259 -43.82473803 53.03393972 -47.44921875 54.4921875 C-45.0891499 60.74678694 -41.28150244 64.46584084 -35.34375 67.60546875 C-24.99717861 71.58201987 -15.32233326 69.76585792 -5.44921875 65.4921875 C-3.78382952 64.82233608 -2.11752693 64.15473565 -0.44921875 63.4921875 C1.15898537 64.90426917 2.76218833 66.32204786 4.36328125 67.7421875 C5.25660156 68.53109375 6.14992188 69.32 7.0703125 70.1328125 C9.1920635 72.15098195 10.89332548 74.09135455 12.55078125 76.4921875 C-1.60304347 87.21295687 -14.92366642 90.07592659 -32.44921875 88.4921875 C-41.1410431 86.54417059 -47.90545545 82.4188572 -54.44921875 76.4921875 C-55.07441406 75.97011719 -55.69960938 75.44804688 -56.34375 74.91015625 C-63.2372849 68.73751389 -68.7154297 58.50623547 -69.68432617 49.24487305 C-70.47588686 34.63155421 -69.09559859 23.132936 -59.3828125 11.58203125 C-44.14045414 -4.89203283 -20.39368391 -12.5549633 0 0 Z " fill="#FCFCFF" transform="translate(1012.44921875,743.5078125)"/>
<path d="M0 0 C6.27 0 12.54 0 19 0 C19.0093457 1.80597656 19.01869141 3.61195313 19.02832031 5.47265625 C19.06395367 11.4639061 19.11781831 17.45476392 19.18390274 23.44573975 C19.22328102 27.0753348 19.25551619 30.70469077 19.27099609 34.33447266 C19.28622717 37.84259227 19.32078433 41.35005417 19.36830902 44.85787964 C19.39019599 46.83622203 19.39246818 48.81475033 19.39434814 50.79321289 C19.51009918 57.95866305 19.98032535 62.97677719 24 69 C28.87788934 72.82468405 33.94278879 73.70489382 40.0625 73.44140625 C48.49125593 72.17485117 55.18061483 68.84647866 60.59765625 62.2578125 C65.0845896 55.03372482 65.4639746 49.11482808 65.51171875 40.72265625 C65.53864555 38.97292763 65.53864555 38.97292763 65.56611633 37.18785095 C65.62009379 33.47943688 65.65407574 29.77115062 65.6875 26.0625 C65.72068405 23.54099789 65.75517471 21.01951262 65.79101562 18.49804688 C65.87581353 12.33212363 65.94268531 6.16623748 66 0 C72.27 0 78.54 0 85 0 C85 30.36 85 60.72 85 92 C79.72 92 74.44 92 69 92 C68.01 80.12 68.01 80.12 67 68 C65.35 70.97 63.7 73.94 62 77 C57.04522711 84.34673222 49.36561445 89.40293303 40.8046875 91.55078125 C31.36574241 93.06259 21.31687074 93.48752491 12.94140625 88.4140625 C6.32721602 83.5964833 1.29415448 77.1754792 0 69 C-0.08584715 66.70075376 -0.11773169 64.39923315 -0.11352539 62.09838867 C-0.11367142 61.42466217 -0.11381744 60.75093567 -0.1139679 60.05679321 C-0.11327472 57.84381826 -0.10551036 55.63092889 -0.09765625 53.41796875 C-0.09578995 51.87811835 -0.09436705 50.33826735 -0.09336853 48.79841614 C-0.08956002 44.75589341 -0.07974402 40.71340691 -0.06866455 36.67089844 C-0.05841455 32.54167165 -0.05386323 28.41243898 -0.04882812 24.28320312 C-0.0381202 16.18878365 -0.02053695 8.09440051 0 0 Z " fill="#FBFBFF" transform="translate(1543,740)"/>
<path d="M0 0 C1.65 0 3.3 0 5 0 C5.75207484 2.22848404 6.50164929 4.457765 7.25 6.6875 C7.66765625 7.92886719 8.0853125 9.17023437 8.515625 10.44921875 C9.64435718 13.86564918 10.71293474 17.29768698 11.765625 20.73828125 C13.50810549 26.43013737 15.29228088 32.1077977 17.09375 37.78125 C17.3694281 38.64945877 17.6451062 39.51766754 17.92913818 40.41218567 C18.78567545 43.10825643 19.64273912 45.80415925 20.5 48.5 C22.43080397 54.5718273 24.35835352 60.64464257 26.27734375 66.72021484 C26.94514985 68.82696261 27.6200822 70.93128239 28.296875 73.03515625 C28.66296875 74.18886719 29.0290625 75.34257813 29.40625 76.53125 C29.71884766 77.50642578 30.03144531 78.48160156 30.35351562 79.48632812 C31 82 31 82 31 86 C5.92 86 -19.16 86 -45 86 C-43.55421774 81.66265323 -42.25444932 78.33954465 -40.12109375 74.4140625 C-39.24662598 72.79467773 -39.24662598 72.79467773 -38.35449219 71.14257812 C-37.71550724 69.9700453 -37.07650948 68.79751946 -36.4375 67.625 C-35.42609113 65.75645862 -34.41646136 63.88696316 -33.4069519 62.01739502 C-32.6995697 60.70750097 -31.99165412 59.39789483 -31.28323364 58.08856201 C-27.59313136 51.26351567 -23.96392997 44.4065645 -20.3347168 37.54901123 C-13.67391827 24.96687825 -6.92295954 12.44039382 0 0 Z " fill="#606EFD" transform="translate(540,701)"/>
<path d="M0 0 C-1.41680244 4.32046898 -3.53763785 7.00461199 -6.625 10.3125 C-7.44226562 11.19550781 -8.25953125 12.07851563 -9.1015625 12.98828125 C-9.72804688 13.65214844 -10.35453125 14.31601562 -11 15 C-12.03833984 14.45859375 -12.03833984 14.45859375 -13.09765625 13.90625 C-22.16262982 9.60665779 -31.06596012 8.04424516 -40.89453125 10.81640625 C-48.34063538 14.09909732 -54.04350684 19.84245203 -57.5 27.1875 C-58.75689257 36.77130584 -59.45495455 46.58420113 -54 55 C-48.53622606 61.17047829 -42.87877523 65.55951629 -34.58203125 66.30859375 C-27.32434192 66.54881817 -21.51083657 66.08694036 -14.953125 62.875 C-13 62 -13 62 -10 62 C-8.1380628 63.91764871 -6.47754723 65.79903526 -4.8125 67.875 C-4.34908203 68.43058594 -3.88566406 68.98617187 -3.40820312 69.55859375 C0 73.72473306 0 73.72473306 0 76 C-2.18376766 77.13277268 -4.37157128 78.25622789 -6.5625 79.375 C-7.17158203 79.69210937 -7.78066406 80.00921875 -8.40820312 80.3359375 C-19.401566 85.91986785 -31.8500774 86.92784971 -43.84765625 84.08984375 C-56.38119279 79.53086145 -66.92987154 70.5952594 -73.19921875 58.73046875 C-74.21623113 56.51118895 -75.13245912 54.28146569 -76 52 C-76.4125 50.9275 -76.825 49.855 -77.25 48.75 C-79.82195903 35.89020485 -77.76815073 23.22903388 -70.58984375 12.2421875 C-53.35273111 -12.06764703 -24.49407807 -15.09231073 0 0 Z " fill="#FCFCFF" transform="translate(1459,747)"/>
<path d="M0 0 C5.97364148 0.55658231 11.53833905 1.4777935 17.31640625 3.06640625 C18.42930275 3.36393044 18.42930275 3.36393044 19.56468201 3.66746521 C21.89898837 4.2930144 24.2307292 4.92757246 26.5625 5.5625 C28.15934326 5.99213884 29.7563473 6.42118054 31.35351562 6.84960938 C35.23756674 7.89285805 39.11934689 8.94418496 43 10 C45.17333984 17.68164062 45.17333984 17.68164062 43.61328125 20.546875 C42.85402344 21.27390625 42.09476563 22.0009375 41.3125 22.75 C40.47332031 23.59046875 39.63414062 24.4309375 38.76953125 25.296875 C37.85558594 26.18890625 36.94164062 27.0809375 36 28 C34.14003856 29.97600181 32.3212599 31.98836338 30.5 34 C29.56570904 35.01878421 28.63081726 36.03701776 27.6953125 37.0546875 C23.7691595 41.34500541 19.88269565 45.67037536 16 50 C10.72916984 55.87754442 5.42768328 61.72499827 0.08642578 67.53857422 C-3.52855792 71.47657217 -7.10650908 75.44639522 -10.67578125 79.42578125 C-13.32809901 82.36339034 -16.0069096 85.27572282 -18.6875 88.1875 C-22.5493409 92.38489211 -26.3289207 96.63439218 -30 101 C-31.60458458 97.79083084 -30.18092396 94.67868593 -29.375 91.328125 C-29.19277893 90.5465654 -29.01055786 89.7650058 -28.82281494 88.95976257 C-28.22166951 86.38827863 -27.61083463 83.81919796 -27 81.25 C-26.58234881 79.47093908 -26.16536145 77.6917222 -25.74902344 75.91235352 C-24.90598711 72.31390986 -24.05923407 68.71637495 -23.20898438 65.11962891 C-21.83274191 59.29690816 -20.47148105 53.47077467 -19.11547852 47.64331055 C-18.54292764 45.19175913 -17.96536775 42.74137163 -17.38256836 40.29223633 C-16.05473915 34.69017933 -14.80184568 29.09617533 -13.73828125 23.4375 C-13.53750977 22.41922119 -13.33673828 21.40094238 -13.12988281 20.35180664 C-12.76622198 18.48389815 -12.4284838 16.61064393 -12.12402344 14.73217773 C-10.94223632 8.79818454 -10.94223632 8.79818454 -8.12841797 6.41455078 C-5.96484375 5.09765625 -5.96484375 5.09765625 -3.85522461 4.05493164 C-1.67492698 2.99891933 -1.67492698 2.99891933 0 0 Z " fill="#606EFD" transform="translate(488,678)"/>
<path d="M0 0 C5.94 0 11.88 0 18 0 C18 12.87 18 25.74 18 39 C25.92 39 33.84 39 42 39 C42 44.61 42 50.22 42 56 C34.08 56 26.16 56 18 56 C18 80.09 18 104.18 18 129 C12.06 129 6.12 129 0 129 C0 104.58 0 80.16 0 55 C-5.28 55 -10.56 55 -16 55 C-16 50.05 -16 45.1 -16 40 C-10.72 40 -5.44 40 0 40 C0 26.8 0 13.6 0 0 Z " fill="#FEFEFF" transform="translate(1706,701)"/>
<path d="M0 0 C0.71800781 0.44988281 1.43601562 0.89976562 2.17578125 1.36328125 C5.90747835 1.55630007 8.6258828 1.54658073 12.17578125 0.36328125 C17.12578125 5.31328125 22.07578125 10.26328125 27.17578125 15.36328125 C25.59118116 19.32478146 24.15899006 22.13497393 21.83203125 25.609375 C21.1680835 26.60404785 20.50413574 27.5987207 19.82006836 28.62353516 C19.11245361 29.67202637 18.40483887 30.72051758 17.67578125 31.80078125 C16.94818604 32.88536621 16.22059082 33.96995117 15.47094727 35.08740234 C11.02917057 41.6851753 6.5051389 48.20253823 1.82421875 54.6328125 C-0.40571779 57.73112926 -2.53557614 60.89112264 -4.66015625 64.0625 C-5.3368335 65.06974121 -6.01351074 66.07698242 -6.71069336 67.11474609 C-8.05934558 69.12753047 -9.40150875 71.14468068 -10.73657227 73.16650391 C-11.35201904 74.08351074 -11.96746582 75.00051758 -12.6015625 75.9453125 C-13.15062256 76.77264893 -13.69968262 77.59998535 -14.26538086 78.45239258 C-15.82421875 80.36328125 -15.82421875 80.36328125 -18.82421875 81.36328125 C-21.82421875 80.36328125 -21.82421875 80.36328125 -23.296875 77.59375 C-25.44371532 72.1114154 -26.79398654 66.36771836 -28.26171875 60.67578125 C-30.24906612 52.99881467 -32.4162667 45.46899613 -34.97875977 37.96362305 C-35.92996062 35.03805552 -36.59452037 32.15137097 -37.07421875 29.11328125 C-37.29851562 27.74429688 -37.29851562 27.74429688 -37.52734375 26.34765625 C-37.67429687 25.36539063 -37.67429687 25.36539063 -37.82421875 24.36328125 C-32.52954502 20.31011722 -27.19410109 16.31626005 -21.82421875 12.36328125 C-20.98536133 11.74404785 -20.14650391 11.12481445 -19.28222656 10.48681641 C-16.74870307 8.63206968 -14.19635015 6.80677679 -11.63671875 4.98828125 C-10.83580811 4.39893799 -10.03489746 3.80959473 -9.2097168 3.20239258 C-3.50609232 -0.79044682 -3.50609232 -0.79044682 0 0 Z " fill="#606EFD" transform="translate(387.82421875,742.63671875)"/>
<path d="M0 0 C7.53392978 4.56887691 11.45329064 11.13330943 14.18359375 19.32421875 C15.20470078 29.46235282 13.68203013 38.14026402 7.609375 46.48828125 C1.49234416 53.18992343 -5.17003757 55.53742193 -14.12890625 55.94921875 C-23.19273984 55.68531195 -30.98529257 52.7210987 -37.31640625 46.07421875 C-42.58600457 38.93375712 -44.6309312 31.48465422 -44.328125 22.640625 C-43.10959017 14.74340308 -39.21381039 7.2849744 -32.70703125 2.50390625 C-32.083125 2.11460937 -31.45921875 1.7253125 -30.81640625 1.32421875 C-30.171875 0.91429687 -29.52734375 0.504375 -28.86328125 0.08203125 C-20.04053264 -4.65611152 -8.95557314 -4.19103177 0 0 Z " fill="#6070FF" transform="translate(1110.81640625,758.67578125)"/>
<path d="M0 0 C4.764375 -0.0825 9.52875 -0.165 14.4375 -0.25 C16.66391235 -0.30462402 16.66391235 -0.30462402 18.93530273 -0.36035156 C30.15815217 -0.45412107 37.132722 1.61716524 45.33984375 9.26953125 C51.16499585 15.34139567 51.34451969 22.09218109 51.38500977 30.18920898 C51.22429223 37.32767397 49.09061654 42.46458009 44.42578125 47.80078125 C35.55075053 56.13793132 26.16236751 56.53766434 14.4375 56.25 C9.673125 56.1675 4.90875 56.085 0 56 C0 37.52 0 19.04 0 0 Z " fill="#6171FF" transform="translate(1190,696)"/>
<path d="M0 0 C-0.46569122 7.8187104 -1.22458462 15.36399015 -3 23 C-4.34191406 23.22042969 -4.34191406 23.22042969 -5.7109375 23.4453125 C-15.97310874 25.34895621 -24.39171556 27.75540913 -30.5625 36.625 C-33.2679487 40.99357155 -34.10916668 44.6585723 -34.20532227 49.76855469 C-34.22526749 50.70922791 -34.24521271 51.64990112 -34.26576233 52.61907959 C-34.29083107 54.13021332 -34.29083107 54.13021332 -34.31640625 55.671875 C-34.33718735 56.70942932 -34.35796844 57.74698364 -34.37937927 58.815979 C-34.44471408 62.12725258 -34.50368517 65.43860482 -34.5625 68.75 C-34.60570049 70.99610185 -34.64931527 73.24219578 -34.69335938 75.48828125 C-34.80037907 80.99210708 -34.90169192 86.49601195 -35 92 C-40.94 92 -46.88 92 -53 92 C-53 62.3 -53 32.6 -53 2 C-47.39 2 -41.78 2 -36 2 C-35.67 8.93 -35.34 15.86 -35 23 C-33.3603125 20.7725 -33.3603125 20.7725 -31.6875 18.5 C-24.1962473 9.13924884 -12.47731605 0 0 0 Z " fill="#FDFDFF" transform="translate(1530,738)"/>
<path d="M0 0 C2.1640625 0.77734375 2.1640625 0.77734375 4.625 1.9375 C5.44226563 2.31777344 6.25953125 2.69804688 7.1015625 3.08984375 C7.72804688 3.39019531 8.35453125 3.69054687 9 4 C9.73210718 12.32869277 10.40440874 20.66038992 11 29 C11.05784668 29.79583496 11.11569336 30.59166992 11.17529297 31.41162109 C11.29431478 33.23095448 11.36894379 35.0530669 11.4375 36.875 C11.49744141 38.29425781 11.49744141 38.29425781 11.55859375 39.7421875 C11 42 11 42 8.59765625 43.6328125 C7.31181641 44.30957031 7.31181641 44.30957031 6 45 C5.34 45.99 4.68 46.98 4 48 C-2.50930062 47.34313215 -8.89973408 46.38794049 -15.3359375 45.22265625 C-16.29593658 45.05124619 -17.25593567 44.87983612 -18.24502563 44.70323181 C-21.2888503 44.15907014 -24.33192613 43.61084297 -27.375 43.0625 C-29.40880651 42.69830146 -31.44266031 42.33436693 -33.4765625 41.97070312 C-42.65365187 40.3280886 -51.8279291 38.67040844 -61 37 C-61.33 35.68 -61.66 34.36 -62 33 C-61.17725586 32.56357178 -60.35451172 32.12714355 -59.50683594 31.67749023 C-43.15784317 23.00327762 -26.8180026 14.31276663 -10.51074219 5.56030273 C-9.41665039 4.97321533 -8.32255859 4.38612793 -7.1953125 3.78125 C-6.23641113 3.26626953 -5.27750977 2.75128906 -4.28955078 2.22070312 C-2.86877458 1.46319822 -1.4401163 0.72005815 0 0 Z " fill="#606EFC" transform="translate(441,799)"/>
<path d="M0 0 C5.94 0 11.88 0 18 0 C18 29.7 18 59.4 18 90 C12.06 90 6.12 90 0 90 C0 60.3 0 30.6 0 0 Z " fill="#FEFEFF" transform="translate(1654,740)"/>
<path d="M0 0 C12.72190084 2.94922007 25.39691841 6.06837464 38.0625 9.25 C39.91208134 9.7136535 41.76169058 10.17719574 43.61132812 10.640625 C48.07453993 11.75914001 52.53737651 12.87914014 57 14 C57.495 17.96 57.495 17.96 58 22 C56.56333984 22.98226562 56.56333984 22.98226562 55.09765625 23.984375 C46.94002185 29.57217862 38.8231706 35.21227148 30.76196289 40.93847656 C28.84522903 42.29800688 26.92436394 43.65129608 25 45 C24.4215332 45.40750488 23.84306641 45.81500977 23.24707031 46.23486328 C19.23586277 49 19.23586277 49 17 49 C14.89751206 43.14775726 12.79799574 37.29446008 10.70117188 31.44018555 C9.98811191 29.45063824 9.2742546 27.46137651 8.55957031 25.47241211 C7.5297783 22.60606207 6.50290075 19.73868199 5.4765625 16.87109375 C5.15877838 15.98852402 4.84099426 15.10595428 4.51358032 14.19664001 C2.83602479 9.50007552 1.3067619 4.81333476 0 0 Z " fill="#606EFD" transform="translate(407,657)"/>
<path d="M0 0 C5.13473619 2.29914635 8.78029647 6.09809763 12.8125 9.9375 C13.61365234 10.64712891 14.41480469 11.35675781 15.24023438 12.08789062 C18.37509054 15.0991792 20.6153865 17.50118324 21.71069336 21.76953125 C21.77385686 25.04841867 21.43517506 27.04410592 20 30 C16.42055749 33.2265674 12.27340359 35.11956124 7.9375 37.125 C6.69260267 37.73794116 5.44987458 38.35530557 4.20922852 38.97680664 C1.55867156 40.30098295 -1.10059226 41.60513641 -3.765625 42.89990234 C-8.19413448 45.07224975 -12.53748877 47.3905219 -16.875 49.73828125 C-17.6027916 50.13142517 -18.33058319 50.52456909 -19.08042908 50.92962646 C-21.95215608 52.48211947 -24.82279896 54.03660829 -27.69290161 55.59210205 C-29.68911177 56.67054167 -31.68960737 57.7405725 -33.69140625 58.80859375 C-35.41145874 59.73369751 -35.41145874 59.73369751 -37.16625977 60.67749023 C-40 62 -40 62 -43 62 C-42.33097656 61.06285156 -41.66195313 60.12570312 -40.97265625 59.16015625 C-32.46646388 47.19893669 -24.21986792 35.06747066 -15.98291016 22.91992188 C-13.20850126 18.83448352 -10.42106732 14.75813889 -7.625 10.6875 C-7.1911499 10.05448975 -6.7572998 9.42147949 -6.31030273 8.76928711 C-4.26688194 5.79805174 -2.19198567 2.86372321 0 0 Z " fill="#616EFC" transform="translate(419,764)"/>
<path d="M0 0 C0 3.60028475 -0.9765223 5.24396011 -2.640625 8.42578125 C-3.21055176 9.52116211 -3.78047852 10.61654297 -4.36767578 11.74511719 C-4.99486666 12.93437695 -5.62231442 14.12350127 -6.25 15.3125 C-6.89208011 16.53922279 -7.5338411 17.76611265 -8.17529297 18.99316406 C-12.54970871 27.34006659 -17.02958245 35.62746626 -21.57446289 43.8828125 C-25.92848581 51.80799755 -30.11172341 59.81807481 -34.25634766 67.85449219 C-34.97056885 69.23556152 -34.97056885 69.23556152 -35.69921875 70.64453125 C-36.33089966 71.87200073 -36.33089966 71.87200073 -36.9753418 73.12426758 C-38 75 -38 75 -39 76 C-40.85369611 76.08737645 -42.71067541 76.10698153 -44.56640625 76.09765625 C-45.69111328 76.09443359 -46.81582031 76.09121094 -47.97460938 76.08789062 C-49.15861328 76.07951172 -50.34261719 76.07113281 -51.5625 76.0625 C-52.75037109 76.05798828 -53.93824219 76.05347656 -55.16210938 76.04882812 C-58.10812226 76.03699675 -61.05403681 76.02051287 -64 76 C-64.58789062 73.62231445 -64.58789062 73.62231445 -65 71 C-63.59375 69.04296875 -63.59375 69.04296875 -61.5 67.1875 C-58.7669126 64.65232582 -56.16873489 62.15032262 -53.75 59.3125 C-50.61965453 55.6747241 -47.38758369 52.1436423 -44.125 48.625 C-39.03205025 43.12849973 -33.99817897 37.58297504 -29 32 C-23.69187032 26.07976168 -18.34859497 20.19481327 -12.96557617 14.34277344 C-9.69990108 10.78443358 -6.49494815 7.17996436 -3.33984375 3.5234375 C-2.27112096 2.30827165 -1.1442894 1.1442894 0 0 Z " fill="#616EFC" transform="translate(527,711)"/>
<path d="M0 0 C1.40522744 2.81045488 0.61661684 4.24413813 -0.15234375 7.2734375 C-0.43029785 8.39049072 -0.70825195 9.50754395 -0.99462891 10.65844727 C-1.30577637 11.88490967 -1.61692383 13.11137207 -1.9375 14.375 C-2.59284339 17.0162375 -3.24597791 19.6578813 -3.89453125 22.30078125 C-4.065755 22.99741379 -4.23697876 23.69404633 -4.41339111 24.41178894 C-6.26421363 31.9938431 -7.94325811 39.61244893 -9.61471558 47.23568726 C-14.30772487 68.635035 -14.30772487 68.635035 -16.875 79.0625 C-17.06594238 79.85277588 -17.25688477 80.64305176 -17.45361328 81.45727539 C-18.28896952 84.7771159 -19.0800783 87.12011745 -21 90 C-21.92176777 87.70303287 -22.84112723 85.40515397 -23.75732422 83.10595703 C-24.61353359 80.96593825 -25.47761441 78.82905761 -26.34814453 76.69482422 C-27.79103878 73.12292173 -29.17909637 69.5328187 -30.5625 65.9375 C-31.06330078 64.72255859 -31.56410156 63.50761719 -32.08007812 62.25585938 C-35.35602525 53.58423463 -35.35602525 53.58423463 -34.44091797 49.51220703 C-33.16583634 47.1059787 -31.70750437 45.12116594 -30 43 C-28.74172501 41.24605622 -27.48532607 39.49076557 -26.23046875 37.734375 C-25.20058838 36.34702148 -25.20058838 36.34702148 -24.14990234 34.93164062 C-20.39078833 29.80565367 -16.86807484 24.51822438 -13.3125 19.25 C-4.49622191 6.20780146 -4.49622191 6.20780146 0 0 Z " fill="#626EFB" transform="translate(471,688)"/>
<path d="M0 0 C8.80314151 3.92065379 18.39669205 13.59519258 23.09277344 21.94238281 C24.16235153 24.82943947 24.11126751 27.02565375 23.640625 30.046875 C20.2452489 36.15855198 14.1239041 39.23167863 8.22900391 42.65625 C4.68817414 44.79083127 1.38869501 47.23687305 -1.9375 49.6875 C-7.85429796 54 -7.85429796 54 -9 54 C-8.53292148 42.55582543 -6.13677584 31.45866452 -3.9375 20.25 C-3.55606025 18.28136236 -3.17519615 16.3126131 -2.79492188 14.34375 C-1.86991369 9.56118703 -0.93712606 4.78020263 0 0 Z " fill="#616EFC" transform="translate(360,705)"/>
<path d="M0 0 C-0.67581523 6.08233706 -1.73638028 12.01314152 -3 18 C-4.92057292 18.390625 -6.84114583 18.78125 -8.76171875 19.171875 C-11.19486077 19.89883516 -11.19486077 19.89883516 -13.1887207 22.14453125 C-16 24 -16 24 -19.37304688 23.66503906 C-20.66191289 23.30602734 -21.94374538 22.92112252 -23.21875 22.515625 C-24.64937461 22.1087406 -26.08037852 21.70318793 -27.51171875 21.29882812 C-28.25019043 21.08202393 -28.98866211 20.86521973 -29.74951172 20.6418457 C-33.3994705 19.600867 -37.08893661 18.73554854 -40.78125 17.859375 C-42.23321987 17.50841993 -43.68504321 17.15685806 -45.13671875 16.8046875 C-46.59114262 16.45311171 -48.04556974 16.10154936 -49.5 15.75 C-51.01694035 15.3828673 -52.53386748 15.01568001 -54.05078125 14.6484375 C-57.70036974 13.76499971 -61.35013302 12.88228663 -65 12 C-62.25320511 9.25320511 -59.36413538 9.19585629 -55.66796875 8.6328125 C-54.92780014 8.5131311 -54.18763153 8.39344971 -53.42503357 8.2701416 C-51.01360119 7.88132423 -48.60061096 7.50324569 -46.1875 7.125 C-42.89646287 6.59788459 -39.60637313 6.06500006 -36.31640625 5.53125 C-35.10262299 5.33530746 -35.10262299 5.33530746 -33.86431885 5.13540649 C-26.6008168 3.95474729 -19.37558215 2.60618574 -12.16870117 1.11767578 C-8.04542107 0.28810844 -4.20747342 -0.17364176 0 0 Z " fill="#626EFB" transform="translate(482,642)"/>
<path d="M0 0 C2.20604178 1.61833181 3.5713987 3.17221131 5.0234375 5.484375 C5.0234375 6.144375 5.0234375 6.804375 5.0234375 7.484375 C-0.20238148 9.71487011 -5.43113163 11.93829947 -10.66259766 14.15551758 C-12.43813967 14.90916375 -14.21289693 15.66466177 -15.98681641 16.42211914 C-18.55161647 17.51688608 -21.11926004 18.60473763 -23.6875 19.69140625 C-24.46709076 20.02590286 -25.24668152 20.36039948 -26.04989624 20.70503235 C-31.58910826 23.03799852 -37.19157449 24.8588502 -42.9765625 26.484375 C-43.77770956 18.33937985 -41.65821539 13.15469461 -36.9765625 6.484375 C-27.3715973 -4.58420394 -12.79756577 -6.88772643 0 0 Z " fill="#6171FF" transform="translate(1342.9765625,759.515625)"/>
<path d="M0 0 C2.20604178 1.61833181 3.5713987 3.17221131 5.0234375 5.484375 C5.0234375 6.144375 5.0234375 6.804375 5.0234375 7.484375 C-0.20238148 9.71487011 -5.43113163 11.93829947 -10.66259766 14.15551758 C-12.43813967 14.90916375 -14.21289693 15.66466177 -15.98681641 16.42211914 C-18.55161647 17.51688608 -21.11926004 18.60473763 -23.6875 19.69140625 C-24.46709076 20.02590286 -25.24668152 20.36039948 -26.04989624 20.70503235 C-31.58910826 23.03799852 -37.19157449 24.8588502 -42.9765625 26.484375 C-43.77770956 18.33937985 -41.65821539 13.15469461 -36.9765625 6.484375 C-27.3715973 -4.58420394 -12.79756577 -6.88772643 0 0 Z " fill="#6171FF" transform="translate(1003.9765625,759.515625)"/>
<path d="M0 0 C6.93 0 13.86 0 21 0 C19.48286837 4.55139488 18.01627769 8.1048282 15.76953125 12.25390625 C15.45602219 12.83607407 15.14251312 13.41824188 14.81950378 14.01805115 C13.82161425 15.8686436 12.81722785 17.71561301 11.8125 19.5625 C11.15776379 20.77385119 10.5034637 21.98543819 9.84960938 23.19726562 C8.55276847 25.5991688 7.25336605 27.99965583 5.95166016 30.39892578 C2.95429013 35.92534446 -0.02185365 41.46320529 -3 47 C-3.66 47 -4.32 47 -5 47 C-5.05534912 46.30438965 -5.11069824 45.6087793 -5.16772461 44.89208984 C-5.42166855 41.71950822 -5.67954821 38.54725817 -5.9375 35.375 C-6.02451172 34.28058594 -6.11152344 33.18617188 -6.20117188 32.05859375 C-6.33168945 30.46337891 -6.33168945 30.46337891 -6.46484375 28.8359375 C-6.543396 27.86188965 -6.62194824 26.8878418 -6.70288086 25.88427734 C-7.01095255 22.89367841 -7.48118162 19.96065401 -8 17 C-8.41701025 14.03342074 -8.34756056 12.07839352 -8 9 C-5.125 6.8125 -5.125 6.8125 -2 5 C-1.34 3.35 -0.68 1.7 0 0 Z " fill="#636EFA" transform="translate(463,793)"/>
<path d="M0 0 C4.14689982 1.66077299 7.06716167 4.65980945 10.25 7.6875 C11.41725351 8.78201327 12.58521929 9.87576745 13.75390625 10.96875 C14.31480957 11.4946875 14.87571289 12.020625 15.45361328 12.5625 C17.9318284 14.86621497 20.48461939 17.07932331 23.04296875 19.29296875 C25.3855915 21.33633431 27.69273422 23.41680859 30 25.5 C34.29594745 29.37699282 38.63151246 33.20502898 43 37 C39.55034244 38.72482878 35.77846089 37.01062844 32.16015625 36.15625 C30.84331093 35.84608948 30.84331093 35.84608948 29.49986267 35.52966309 C27.6402249 35.08662223 25.78164894 34.63910459 23.92407227 34.1875 C22.02125808 33.73034406 20.115258 33.28624507 18.20629883 32.85546875 C15.45407552 32.23439075 12.71363313 31.57500847 9.97265625 30.90625 C8.69286644 30.62763123 8.69286644 30.62763123 7.38722229 30.34338379 C1.59412927 28.86323646 1.59412927 28.86323646 -0.150177 26.32885742 C-0.93579102 24.44335938 -0.93579102 24.44335938 -2 21 C-2.66 20.34 -3.32 19.68 -4 19 C-3.64165575 12.43035538 -1.8392644 6.29282913 0 0 Z " fill="#626EFB" transform="translate(488,644)"/>
<path d="M0 0 C1.1807048 2.89030435 2.34200121 5.78803199 3.5 8.6875 C3.83386719 9.50412109 4.16773438 10.32074219 4.51171875 11.16210938 C7.77226376 19.38001363 7.77226376 19.38001363 7 23 C5.57302865 25.41509239 4.16091439 27.57550269 2.5 29.8125 C2.07074219 30.40998047 1.64148438 31.00746094 1.19921875 31.62304688 C0.1432817 33.08962611 -0.92697296 34.54587804 -2 36 C-8.32948859 34.74470559 -13.01024629 29.65247107 -16.91992188 24.73339844 C-18.69236955 21.88882825 -18.82902593 19.6786506 -18.625 16.375 C-16.71585347 8.97928752 -11.36566449 5.57548467 -5.1875 1.73046875 C-2 0 -2 0 0 0 Z " fill="#626EFB" transform="translate(422,717)"/>
<path d="M0 0 C0 3.73946897 -0.93366148 4.56303929 -3.1875 7.5 C-7.06257112 12.67819238 -10.74245904 17.96154911 -14.375 23.3125 C-19.80407007 31.29153988 -25.34729976 39.17809199 -31 47 C-33.16078773 43.75881841 -34.34884727 40.71790415 -35.6875 37.0625 C-36.14511719 35.83660156 -36.60273438 34.61070312 -37.07421875 33.34765625 C-37.99115984 30.03196632 -38.22907637 29.06508054 -37 26 C-35.39624023 24.54296875 -35.39624023 24.54296875 -33.30859375 23.1875 C-32.53572021 22.67477539 -31.76284668 22.16205078 -30.96655273 21.63378906 C-29.71467163 20.82506348 -29.71467163 20.82506348 -28.4375 20 C-26.70625528 18.85208624 -24.97712559 17.70097702 -23.25 16.546875 C-22.37472656 15.96228516 -21.49945313 15.37769531 -20.59765625 14.77539062 C-15.91348067 11.57395032 -11.40985504 8.13844391 -6.90209961 4.6953125 C-2.1638436 1.0819218 -2.1638436 1.0819218 0 0 Z " fill="#626EFA" transform="translate(465,685)"/>
<path d="M0 0 C3.47060168 2.06759249 5.77725393 4.10944433 7 8 C7.480151 12.32135899 7.29173086 14.4668367 5.1875 18.3125 C3.01107817 20.98638967 1.42651267 22.74186914 -2.05078125 23.37109375 C-6.31020603 23.49615458 -9.12290024 23.39700198 -12.5 20.625 C-16.13542732 16.80780131 -16.39236502 14.44157848 -16.359375 9.328125 C-15.75455722 5.40995764 -13.83123243 3.69641184 -11 1 C-7.53749757 -0.73125121 -3.78591771 -0.47815224 0 0 Z " fill="#FCFCFF" transform="translate(1668,694)"/>
<path d="M0 0 C3.05738691 2.54425135 3.99398294 5.18835528 5.26171875 8.91015625 C5.65810547 10.06451172 6.05449219 11.21886719 6.46289062 12.40820312 C7.06907227 14.21708008 7.06907227 14.21708008 7.6875 16.0625 C8.10322266 17.27228516 8.51894531 18.48207031 8.94726562 19.72851562 C12 28.69623615 12 28.69623615 12 31 C7.17395504 28.83384341 3.91527729 25.35927312 0.1875 21.6875 C-0.51826172 21.02298828 -1.22402344 20.35847656 -1.95117188 19.67382812 C-2.61310547 19.02220703 -3.27503906 18.37058594 -3.95703125 17.69921875 C-4.56522705 17.10971436 -5.17342285 16.52020996 -5.80004883 15.9128418 C-7 14 -7 14 -6.77832031 11.42236328 C-5.87985074 8.62605991 -4.6220806 6.58892341 -2.9375 4.1875 C-2.38964844 3.39730469 -1.84179688 2.60710938 -1.27734375 1.79296875 C-0.64505859 0.90544922 -0.64505859 0.90544922 0 0 Z " fill="#686EF5" transform="translate(431,746)"/>
<path d="M0 0 C0 3.61165822 -0.61753391 4.3710719 -3 7 C-5.6875 8.75 -5.6875 8.75 -8 10 C-6.34908222 5.70761377 -3.26245434 3.1206085 0 0 Z " fill="#726DEA" transform="translate(527,711)"/>
</svg>
