<svg xmlns="http://www.w3.org/2000/svg" version="1.1" xmlns:xlink="http://www.w3.org/1999/xlink" xmlns:svgjs="http://svgjs.dev/svgjs" width="2000" height="1500" viewBox="0 0 2000 1500"><rect width="2000" height="1500" fill="#ffffff"></rect><g transform="matrix(0.75,0,0,0.75,249.09090909090878,477.34366002238323)"><svg viewBox="0 0 396 144" data-background-color="#ffffff" preserveAspectRatio="xMidYMid meet" height="727" width="2000" xmlns="http://www.w3.org/2000/svg" xmlns:xlink="http://www.w3.org/1999/xlink"><g id="tight-bounds" transform="matrix(1,0,0,1,0.24000000000006594,0.008276857912534297)"><svg viewBox="0 0 395.51999999999987 143.9834462841749" height="143.9834462841749" width="395.51999999999987"><g><svg viewBox="0 0 673.4155856787773 245.1473928183314" height="143.9834462841749" width="395.51999999999987"><g transform="matrix(1,0,0,1,277.89558567877737,87.89398218530772)"><svg viewBox="0 0 395.52 69.35942844771596" height="69.35942844771596" width="395.52"><g id="textblocktransform"><svg viewBox="0 0 395.52 69.35942844771596" height="69.35942844771596" width="395.52" id="textblock"><g><svg viewBox="0 0 395.52 69.35942844771596" height="69.35942844771596" width="395.52"><g transform="matrix(1,0,0,1,0,0)"><svg width="395.52" viewBox="0.35 -38.85 230.93 40.5" height="69.35942844771596" data-palette-color="#5f6fff"><path d="M41.3-36.1L47-36.1Q45.2-31.35 43.18-26.13 41.15-20.9 39.18-15.85 37.2-10.8 35.45-6.25 33.7-1.7 32.5 1.6L32.5 1.6 24.4-18.65Q24.25-19.05 24.15-19.25 24.05-19.45 23.95-19.85L23.95-19.85Q23.95-19.65 23.9-19.48 23.85-19.3 23.8-19.1L23.8-19.1Q23.75-18.9 23.7-18.7L23.7-18.7Q22-14.8 20.35-11.05L20.35-11.05Q19.65-9.45 18.9-7.75 18.15-6.05 17.45-4.38 16.75-2.7 16.07-1.15 15.4 0.4 14.85 1.65L14.85 1.65Q11.25-7.8 7.6-17.2 3.95-26.6 0.35-36.1L0.35-36.1 6.5-36.1Q7.7-32.8 8.97-29.45 10.25-26.1 11.38-23 12.5-19.9 13.4-17.25 14.3-14.6 14.8-12.75L14.8-12.75 15.2-11Q15.25-11.25 15.45-11.83 15.65-12.4 15.75-12.65L15.75-12.65Q15.8-12.85 16.1-13.55 16.4-14.25 16.8-15.23 17.2-16.2 17.7-17.35 18.2-18.5 18.7-19.7L18.7-19.7Q19.9-22.45 21.35-25.8L21.35-25.8Q20.5-28.15 19.85-30.2L19.85-30.2Q19.25-31.95 18.73-33.65 18.2-35.35 17.95-36.1L17.95-36.1 23.2-36.1Q25.35-30.45 27.2-25.65L27.2-25.65Q27.95-23.6 28.73-21.55 29.5-19.5 30.18-17.75 30.85-16 31.35-14.68 31.85-13.35 32.05-12.75L32.05-12.75Q32.2-12.3 32.27-11.88 32.35-11.45 32.45-11L32.45-11Q32.55-11.45 32.63-11.9 32.7-12.35 32.8-12.75L32.8-12.75Q33.25-14.7 34.2-17.4 35.15-20.1 36.33-23.2 37.5-26.3 38.8-29.63 40.1-32.95 41.3-36.1L41.3-36.1ZM60.3-5.55L63.5-2.45Q62-1.1 59.85-0.3 57.7 0.5 55.45 0.5L55.45 0.5Q53.15 0.5 51.12-0.38 49.1-1.25 47.6-2.73 46.1-4.2 45.22-6.2 44.35-8.2 44.35-10.45L44.35-10.45Q44.35-12.7 45.22-14.7 46.1-16.7 47.6-18.2 49.1-19.7 51.07-20.58 53.05-21.45 55.3-21.45L55.3-21.45Q58.85-21.45 61.47-19.33 64.1-17.2 65.25-13.75L65.25-13.75Q63.7-13.2 61.7-12.4 59.7-11.6 57.55-10.73 55.4-9.85 53.25-9 51.1-8.15 49.25-7.45L49.25-7.45Q50.1-5.75 51.72-4.73 53.35-3.7 55.35-3.7L55.35-3.7Q56.7-3.7 58.07-4.2 59.45-4.7 60.3-5.55L60.3-5.55ZM59.9-14.75L59.9-14.75Q59.3-16 58-16.63 56.7-17.25 55.35-17.25L55.35-17.25Q53.9-17.25 52.67-16.7 51.45-16.15 50.55-15.23 49.65-14.3 49.12-13.1 48.6-11.9 48.6-10.65L48.6-10.65Q48.6-10.4 48.62-10.3 48.65-10.2 48.65-10.15L48.65-10.15Q49.95-10.65 51.47-11.28 53-11.9 54.5-12.53 56-13.15 57.4-13.73 58.8-14.3 59.9-14.75ZM91.3-10.4L91.3-10.4Q91.3-8.05 90.5-6.05 89.7-4.05 88.25-2.6 86.8-1.15 84.77-0.33 82.75 0.5 80.35 0.5L80.35 0.5Q79.1 0.5 77.97 0.23 76.85-0.05 75.9-0.53 74.95-1 74.25-1.58 73.55-2.15 73.2-2.75L73.2-2.75Q73.2-2.5 73.22-2.23 73.25-1.95 73.25-1.7L73.25-1.7 73.25 0 68.95 0 68.95-38.85 73.25-38.85 73.25-17.85Q73.65-18.45 74.32-19.07 75-19.7 75.92-20.23 76.85-20.75 78-21.1 79.15-21.45 80.55-21.45L80.55-21.45Q82.95-21.45 84.92-20.68 86.9-19.9 88.32-18.48 89.75-17.05 90.52-15 91.3-12.95 91.3-10.4ZM86.65-10.5L86.65-10.5Q86.65-11.95 86.2-13.18 85.75-14.4 84.9-15.3 84.05-16.2 82.85-16.73 81.65-17.25 80.15-17.25L80.15-17.25Q78.65-17.25 77.37-16.73 76.1-16.2 75.2-15.3 74.3-14.4 73.77-13.18 73.25-11.95 73.25-10.5L73.25-10.5Q73.25-9.05 73.77-7.8 74.3-6.55 75.2-5.65 76.1-4.75 77.37-4.23 78.65-3.7 80.15-3.7L80.15-3.7Q81.65-3.7 82.85-4.23 84.05-4.75 84.9-5.68 85.75-6.6 86.2-7.83 86.65-9.05 86.65-10.5ZM101.89 0L96.39 0 96.39-36.25 106.29-36.25Q109.14-36.25 111.52-35.5 113.89-34.75 115.62-33.27 117.34-31.8 118.29-29.68 119.24-27.55 119.24-24.8L119.24-24.8Q119.24-23.3 118.94-21.83 118.64-20.35 117.97-18.98 117.29-17.6 116.24-16.43 115.19-15.25 113.69-14.45L113.69-14.45Q115.69-11.3 118.04-7.48 120.39-3.65 122.79 0L122.79 0 116.24 0Q115.24-1.55 114.17-3.25 113.09-4.95 112.02-6.63 110.94-8.3 109.92-9.93 108.89-11.55 107.99-12.95L107.99-12.95 106.99-12.95 101.89-12.95 101.89 0ZM101.89-31.15L101.89-18.1 106.84-18.1Q108.84-18.1 110.19-18.78 111.54-19.45 112.32-20.45 113.09-21.45 113.42-22.6 113.74-23.75 113.74-24.7L113.74-24.7Q113.74-25.65 113.42-26.78 113.09-27.9 112.29-28.88 111.49-29.85 110.17-30.5 108.84-31.15 106.89-31.15L106.89-31.15 101.89-31.15ZM138.94-5.55L142.14-2.45Q140.64-1.1 138.49-0.3 136.34 0.5 134.09 0.5L134.09 0.5Q131.79 0.5 129.77-0.38 127.74-1.25 126.24-2.73 124.74-4.2 123.87-6.2 122.99-8.2 122.99-10.45L122.99-10.45Q122.99-12.7 123.87-14.7 124.74-16.7 126.24-18.2 127.74-19.7 129.72-20.58 131.69-21.45 133.94-21.45L133.94-21.45Q137.49-21.45 140.12-19.33 142.74-17.2 143.89-13.75L143.89-13.75Q142.34-13.2 140.34-12.4 138.34-11.6 136.19-10.73 134.04-9.85 131.89-9 129.74-8.15 127.89-7.45L127.89-7.45Q128.74-5.75 130.37-4.73 131.99-3.7 133.99-3.7L133.99-3.7Q135.34-3.7 136.72-4.2 138.09-4.7 138.94-5.55L138.94-5.55ZM138.54-14.75L138.54-14.75Q137.94-16 136.64-16.63 135.34-17.25 133.99-17.25L133.99-17.25Q132.54-17.25 131.31-16.7 130.09-16.15 129.19-15.23 128.29-14.3 127.77-13.1 127.24-11.9 127.24-10.65L127.24-10.65Q127.24-10.4 127.27-10.3 127.29-10.2 127.29-10.15L127.29-10.15Q128.59-10.65 130.12-11.28 131.64-11.9 133.14-12.53 134.64-13.15 136.04-13.73 137.44-14.3 138.54-14.75ZM161.59-5.15L161.59-5.15Q162.29-4.3 162.91-3.53 163.54-2.75 164.19-1.9L164.19-1.9Q162.79-0.8 161.04-0.15 159.29 0.5 157.24 0.5L157.24 0.5Q154.94 0.5 152.91-0.38 150.89-1.25 149.39-2.75 147.89-4.25 147.01-6.25 146.14-8.25 146.14-10.5L146.14-10.5Q146.14-12.75 147.01-14.75 147.89-16.75 149.39-18.23 150.89-19.7 152.91-20.58 154.94-21.45 157.24-21.45L157.24-21.45Q159.34-21.45 161.11-20.8 162.89-20.15 164.34-19.05L164.34-19.05 161.59-15.8Q160.74-16.5 159.64-16.88 158.54-17.25 157.24-17.25L157.24-17.25Q155.74-17.25 154.49-16.73 153.24-16.2 152.31-15.3 151.39-14.4 150.89-13.18 150.39-11.95 150.39-10.5L150.39-10.5Q150.39-9.05 150.89-7.83 151.39-6.6 152.31-5.68 153.24-4.75 154.49-4.23 155.74-3.7 157.24-3.7L157.24-3.7Q158.54-3.7 159.64-4.08 160.74-4.45 161.59-5.15ZM180.84-21.45L179.89-15.95Q178.49-15.95 177.19-15.58 175.89-15.2 174.86-14.45 173.84-13.7 173.24-12.58 172.64-11.45 172.64-10L172.64-10 172.64 0 168.39 0 168.39-20.9 172.14-20.9Q172.24-19.35 172.31-18.07 172.39-16.8 172.49-15.55L172.49-15.55Q173.14-16.9 174.19-18 175.24-19.1 176.44-19.85 177.64-20.6 178.79-21.03 179.94-21.45 180.84-21.45L180.84-21.45ZM203.38-20.9L203.38 0.45 199.78 0.45 199.28-5.35Q198.13-2.8 196.06-1.15 193.98 0.5 190.78 0.5L190.78 0.5Q187.58 0.5 185.71-1.23 183.83-2.95 183.73-5.75L183.73-5.75 183.73-20.9 187.98-20.9 187.98-7.65Q188.08-6.1 189.11-5 190.13-3.9 192.28-3.75L192.28-3.75Q193.78-3.75 195.03-4.28 196.28-4.8 197.18-5.7 198.08-6.6 198.58-7.85 199.08-9.1 199.08-10.6L199.08-10.6 199.08-20.9 203.38-20.9ZM208.83-28.9L208.83-28.9Q208.83-30.1 209.71-30.9 210.58-31.7 211.58-31.7L211.58-31.7Q212.58-31.7 213.43-30.9 214.28-30.1 214.28-28.9L214.28-28.9Q214.28-27.7 213.43-26.93 212.58-26.15 211.58-26.15L211.58-26.15Q210.58-26.15 209.71-26.93 208.83-27.7 208.83-28.9ZM213.63-20.9L213.63 0 209.38 0 209.38-20.9 213.63-20.9ZM221.43-20.85L221.43-30.1 225.68-30.1 225.68-20.85 231.28-20.85 231.28-17.05 225.68-17.05 225.68 0 221.43 0 221.43-17.05 217.68-17.05 217.68-20.85 221.43-20.85Z" opacity="1" transform="matrix(1,0,0,1,0,0)" fill="#5f6fff" class="wordmark-text-0" data-fill-palette-color="primary" id="text-0"></path></svg></g></svg></g></svg></g></svg></g><g><svg viewBox="0 0 245.1473928183314 245.1473928183314" height="245.1473928183314" width="245.1473928183314"><g><svg></svg></g><g id="icon-0"><svg viewBox="0 0 245.1473928183314 245.1473928183314" height="245.1473928183314" width="245.1473928183314"><g><path d="M0 122.574c0-67.696 54.878-122.574 122.574-122.574 67.696 0 122.574 54.878 122.573 122.574 0 67.696-54.878 122.574-122.573 122.573-67.696 0-122.574-54.878-122.574-122.573zM122.574 238.892c64.241 0 116.319-52.078 116.318-116.318 0-64.241-52.078-116.319-116.318-116.319-64.241 0-116.319 52.078-116.319 116.319 0 64.241 52.078 116.319 116.319 116.318z" data-fill-palette-color="accent" fill="#ea6673" stroke="transparent"></path></g><g transform="matrix(1,0,0,1,51.31987953428785,52.941142378517156)"><svg viewBox="0 0 142.5076337497557 139.2651080612971" height="139.2651080612971" width="142.5076337497557"><g><svg xmlns="http://www.w3.org/2000/svg" xmlns:xlink="http://www.w3.org/1999/xlink" version="1.1" x="0" y="0" viewBox="4.000085497435469 5.013332686502011 91.05855408469914 88.98666717587562" enable-background="new 0 0 100 100" xml:space="preserve" height="139.2651080612971" width="142.5076337497557" class="icon-cg-0" data-fill-palette-color="accent" id="cg-0"><g fill="#ea6673" data-fill-palette-color="accent"><circle cx="55.538" cy="19.677" r="4.9" fill="#ea6673" data-fill-palette-color="accent"></circle></g><g fill="#ea6673" data-fill-palette-color="accent"><circle cx="23.472" cy="42.596" r="4.9" fill="#ea6673" data-fill-palette-color="accent"></circle></g><g fill="#ea6673" data-fill-palette-color="accent"><circle cx="45.736" cy="65.145" r="4.9" fill="#ea6673" data-fill-palette-color="accent"></circle></g><g fill="#ea6673" data-fill-palette-color="accent"><circle cx="12.968" cy="82.662" r="4.9" fill="#ea6673" data-fill-palette-color="accent"></circle></g><g fill="#ea6673" data-fill-palette-color="accent"><circle cx="81.493" cy="25.552" r="4.9" fill="#ea6673" data-fill-palette-color="accent"></circle></g><g fill="#ea6673" data-fill-palette-color="accent"><circle cx="47.69" cy="89.1" r="4.9" fill="#ea6673" data-fill-palette-color="accent"></circle></g><g fill="#ea6673" data-fill-palette-color="accent"><path d="M12.968 83.811c-0.145 0-0.287-0.027-0.419-0.078-0.101-0.041-0.197-0.094-0.285-0.162-0.15-0.117-0.273-0.273-0.353-0.457-0.02-0.047-0.037-0.096-0.05-0.143L4.046 56.078c-0.136-0.471 0.039-0.975 0.438-1.258l51.203-36.386c0.455-0.323 1.075-0.273 1.473 0.117s0.457 1.01 0.143 1.47L16.579 79.428l28.615-15.297c0.166-0.088 0.353-0.135 0.542-0.135h46.606L80.492 26.358 58.655 7.024c-0.475-0.421-0.52-1.147-0.098-1.623 0.42-0.475 1.147-0.52 1.622-0.099l22.075 19.545c0.156 0.139 0.272 0.317 0.335 0.516l12.417 39.437c0.109 0.348 0.047 0.729-0.17 1.023-0.217 0.297-0.561 0.471-0.927 0.471H46.024L13.532 83.664c-0.051 0.027-0.104 0.053-0.159 0.074-0.069 0.025-0.141 0.045-0.212 0.057C13.097 83.807 13.032 83.811 12.968 83.811zM6.482 56.221l6.912 23.785 38.356-55.953L6.482 56.221z" fill="#ea6673" data-fill-palette-color="accent"></path></g><g fill="#ea6673" data-fill-palette-color="accent"><path d="M45.737 66.295c-0.077 0-0.155-0.008-0.233-0.023l0 0c-0.001 0-0.002 0-0.002 0-0.017-0.004-0.032-0.008-0.047-0.012l0 0c-0.003 0-0.004 0-0.006-0.002l0 0c-0.213-0.055-0.396-0.164-0.539-0.312L10.716 31.75 6.281 55.965c-0.114 0.625-0.714 1.037-1.338 0.924-0.625-0.115-1.038-0.715-0.924-1.338l4.829-26.37c0.076-0.42 0.381-0.763 0.788-0.891 0.408-0.127 0.854-0.018 1.155 0.285l34.292 34.292 9.896-42.656-28.495-7.184c-0.526-0.132-0.888-0.614-0.868-1.156s0.416-0.997 0.949-1.091l32.653-5.749c0.38-0.067 0.769 0.062 1.033 0.341 0.266 0.28 0.373 0.675 0.286 1.051l-2.81 12.109 24.046 6.062c0.391 0.099 0.702 0.396 0.819 0.782 0.116 0.386 0.022 0.806-0.249 1.105L46.603 65.9c-0.065 0.076-0.141 0.143-0.224 0.197 0 0.002-0.001 0.002-0.001 0.002-0.001 0-0.001 0-0.002 0l-0.001 0.002c-0.001 0-0.001 0-0.001 0-0.017 0.012-0.032 0.021-0.049 0.031-0.001 0-0.001 0-0.001 0-0.001 0-0.001 0-0.002 0.002h-0.001c-0.001 0-0.001 0-0.001 0C46.146 66.238 45.945 66.295 45.737 66.295zM57.209 20.773l-9.354 40.323 31.499-34.74L57.209 20.773zM32.262 12.112l23.237 5.858 2.406-10.373L32.262 12.112z" fill="#ea6673" data-fill-palette-color="accent"></path></g><g fill="#ea6673" data-fill-palette-color="accent"><path d="M47.69 90.25c-0.069 0-0.14-0.006-0.21-0.02l-34.722-6.439c-0.624-0.115-1.036-0.715-0.921-1.34 0.116-0.623 0.717-1.037 1.34-0.92l33.245 6.164-1.82-22.307-18.92-53.09c-0.214-0.598 0.099-1.256 0.697-1.469 0.598-0.213 1.255 0.099 1.469 0.697L46.819 64.76c0.033 0.094 0.055 0.191 0.062 0.293l1.955 23.953c0.028 0.357-0.11 0.707-0.376 0.947C48.248 90.145 47.973 90.25 47.69 90.25z" fill="#ea6673" data-fill-palette-color="accent"></path></g><g fill="#ea6673" data-fill-palette-color="accent"><path d="M47.689 90.25c-0.183 0-0.367-0.043-0.54-0.135-0.561-0.301-0.772-0.996-0.474-1.557l33.803-63.391c0.299-0.56 0.995-0.772 1.556-0.474 0.56 0.299 0.771 0.996 0.474 1.556L48.705 89.641C48.498 90.029 48.101 90.25 47.689 90.25z" fill="#ea6673" data-fill-palette-color="accent"></path></g></svg></g></svg></g></svg></g></svg></g></svg></g><defs></defs></svg><rect width="395.51999999999987" height="143.9834462841749" fill="none" stroke="none" visibility="hidden"></rect></g></svg></g></svg>